<?xml version="1.0" encoding="utf-8"?>
<!-- Generator: Adobe Illustrator 16.0.0, SVG Export Plug-In . SVG Version: 6.00 Build 0)  -->
<!DOCTYPE svg PUBLIC "-//W3C//DTD SVG 1.1//EN" "http://www.w3.org/Graphics/SVG/1.1/DTD/svg11.dtd">
<svg version="1.1" id="Layer_1" xmlns="http://www.w3.org/2000/svg" xmlns:xlink="http://www.w3.org/1999/xlink" x="0px" y="0px" viewBox="0 0 897.978 203.428" enable-background="new 0 0 897.978 203.428"
	 xml:space="preserve">
<g display="none">
	<g display="inline">
		<path fill="#231F20" d="M252.804,102.32v38.519h-19.481v-39.035c0-5.503-0.838-9.546-2.517-12.126
			c-1.676-2.581-4.386-3.871-8.128-3.871c-3.739,0-7.053,1.399-9.934,4.193c-2.88,2.795-4.321,6.901-4.321,12.32v38.519h-19.351
			V69.163h19.351v9.032c5.33-6.021,11.436-9.032,18.318-9.032c4.389,0,8.364,1.291,11.935,3.871
			c3.568,2.581,6.257,5.721,8.063,9.419c2.665-4.213,6.256-7.483,10.772-9.806c4.518-2.322,9.051-3.484,13.611-3.484
			c8.172,0,14.75,2.432,19.741,7.29c4.987,4.861,7.481,11.892,7.481,21.094v43.292h-19.481v-39.035
			c0-10.663-3.913-15.997-11.74-15.997c-3.869,0-7.225,1.399-10.063,4.193C254.224,92.795,252.804,96.901,252.804,102.32z"/>
		<path fill="#231F20" d="M382.716,105.029c0,10.063-3.482,18.535-10.45,25.416c-6.965,6.882-15.718,10.32-26.254,10.32
			s-19.286-3.438-26.254-10.32c-6.965-6.881-10.45-15.353-10.45-25.416c0-10.062,3.485-18.555,10.45-25.479
			c6.968-6.923,15.718-10.387,26.254-10.387s19.289,3.463,26.254,10.387C379.234,86.474,382.716,94.967,382.716,105.029z
			 M328.789,105.029c0,5.677,1.614,10.301,4.84,13.869c3.226,3.569,7.352,5.354,12.383,5.354s9.161-1.784,12.386-5.354
			c3.226-3.568,4.837-8.192,4.837-13.869c0-5.676-1.611-10.32-4.837-13.932s-7.354-5.418-12.386-5.418s-9.158,1.806-12.383,5.418
			S328.789,99.353,328.789,105.029z"/>
		<path fill="#231F20" d="M413.808,101.03v39.808h-19.352V69.224h19.352v8.842c5.849-5.935,12.427-8.902,19.74-8.902
			c7.311,0,13.437,2.581,18.383,7.741c4.946,5.162,7.42,12.042,7.42,20.642v43.292H440v-40.325c0-10.664-3.917-15.997-11.743-15.997
			c-3.869,0-7.245,1.399-10.125,4.192C415.248,91.505,413.808,95.612,413.808,101.03z"/>
		<path fill="#231F20" d="M526.564,118.124c0,6.838-2.515,12.321-7.547,16.449c-5.031,4.129-11.418,6.192-19.159,6.192
			c-5.158,0-10.535-0.926-16.125-2.772c-5.593-1.85-10.624-4.581-15.096-8.193l8.515-12.128c7.225,5.593,14.921,8.386,23.093,8.386
			c2.494,0,4.472-0.492,5.935-1.482c1.461-0.987,2.193-2.301,2.193-3.936c0-1.632-1.013-3.139-3.031-4.516
			c-2.021-1.373-4.946-2.665-8.773-3.87c-3.828-1.203-6.753-2.235-8.771-3.096c-2.021-0.859-4.323-2.107-6.902-3.742
			c-5.248-3.267-7.871-8.105-7.871-14.512s2.582-11.632,7.741-15.675c5.161-4.042,11.825-6.065,19.997-6.065
			s16.341,2.755,24.513,8.258l-7.225,12.901c-6.021-4.128-12.021-6.193-17.996-6.193c-5.979,0-8.966,1.635-8.966,4.903
			c0,1.806,0.944,3.226,2.836,4.257c1.892,1.032,5.032,2.237,9.417,3.612c4.389,1.377,7.505,2.432,9.355,3.161
			c1.848,0.732,4.063,1.871,6.644,3.418C524.156,106.406,526.564,111.287,526.564,118.124z"/>
		<path fill="#231F20" d="M564.419,84.259v31.091c0,2.667,0.688,4.753,2.066,6.257c1.372,1.505,2.054,1.985,4.918,2.018l9.074-0.031
			v17.245c0,0-5.132,0-11.797,0c-6.667,0-12.238-2.267-16.84-6.653c-4.604-4.386-6.902-10.363-6.902-17.932V84.259h-12.569V69.224
			h12.569v-19.67h19.48v19.67h12.525v15.035H564.419z"/>
		<path fill="#231F20" d="M650.001,129.417c-7.826,7.398-17.008,11.095-27.543,11.095c-10.536,0-20.756-3.244-27.636-9.74
			c-6.882-6.492-10.32-15.2-10.32-26.124c0-10.922,3.503-19.61,10.513-26.06c7.009-6.451,16.801-9.677,26.349-9.677
			c9.544,0,17.65,2.883,24.317,8.645c6.664,5.764,9.999,13.676,9.999,23.739v10.32h-50.575c0.603,3.786,2.582,6.882,5.935,9.288
			c3.355,2.408,7.14,3.612,11.354,3.612c6.794,0,12.387-2.278,16.771-6.838L650.001,129.417z M631.424,88.263
			c-2.665-2.235-5.914-3.354-9.739-3.354c-3.828,0-7.334,1.162-10.516,3.482c-3.181,2.323-5.031,5.464-5.548,9.419h30.447
			C635.638,93.682,634.089,90.5,631.424,88.263z"/>
		<path fill="#231F20" d="M703.542,87.102c-5.764,0-10.063,2.044-12.902,6.128c-2.836,4.086-4.256,9.482-4.256,16.191v31.417
			h-19.351V69.224h19.351v10.009c2.494-2.839,5.61-5.246,9.353-7.225c3.742-1.978,7.549-3.01,11.418-3.098l0.13,18.191H703.542z"/>
		<path fill="#231F20" d="M750.762,123.354c6.448,0,12.256-3.226,17.415-9.676l11.483,12.901
			c-8.948,9.289-18.623,13.933-29.028,13.933c-10.409,0-19.204-3.289-26.384-9.868c-7.184-6.58-10.772-15.18-10.772-25.803
			c0-10.621,3.634-19.265,10.902-25.932c7.266-6.664,15.889-9.999,25.867-9.999c4.987,0,10.04,1.033,15.157,3.098
			s9.612,5.117,13.484,9.159l-10.063,13.16c-2.237-2.665-4.968-4.729-8.193-6.192c-3.226-1.462-6.431-2.194-9.611-2.194
			c-5.076,0-9.441,1.657-13.095,4.967c-3.656,3.312-5.483,7.915-5.483,13.804c0,5.894,1.827,10.473,5.483,13.741
			C741.577,121.722,745.856,123.354,750.762,123.354z"/>
		<path fill="#231F20" d="M848.937,140.838h-18.191v-9.743c-4.987,6.278-11.158,9.417-18.513,9.417s-13.525-2.128-18.514-6.385
			c-4.99-4.259-7.483-9.936-7.483-17.029c0-7.097,2.582-12.406,7.74-15.934c5.162-3.525,12.213-5.29,21.16-5.29h14.449v-0.387
			c0-7.396-3.916-11.095-11.739-11.095c-3.355,0-6.903,0.667-10.646,2c-3.742,1.335-6.902,2.989-9.482,4.967l-8.644-12.513
			c9.116-6.623,19.522-9.936,31.221-9.936c8.429,0,15.308,2.109,20.644,6.323c5.33,4.214,7.998,10.881,7.998,19.996V140.838z
			 M829.455,113.034v-3.354h-12.126c-7.741,0-11.613,2.408-11.613,7.225c0,2.495,0.924,4.407,2.774,5.739
			c1.851,1.336,4.494,2,7.936,2c3.438,0,6.469-1.052,9.096-3.161C828.143,119.377,829.455,116.561,829.455,113.034z"/>
		<path fill="#231F20" d="M886.752,84.259v31.091c0,2.667,0.688,4.753,2.066,6.257c1.372,1.505,2.054,1.985,4.918,2.018l9.074-0.031
			v17.245c0,0-5.132,0-11.797,0c-6.667,0-12.238-2.267-16.84-6.653c-4.604-4.386-6.902-10.363-6.902-17.932V84.259h-12.569V69.224
			h12.569v-19.67h19.48v19.67h12.525v15.035H886.752z"/>
	</g>
	<g display="inline">
		<g>
			<path d="M116.714,148.799c6.891-19.812,3.928-30.436-2.981-36.326c12.168-2.939,22.73-5.861,23.923-7.39
				c5.77-7.422-0.037-26.832-10.942-24.754c-3.828,0.729-12.394,4.692-21.879,9.526c2.754-4.45,4.657-9.453,5.531-14.818
				c6.239-2.042,11.103-8.945,11.138-16.314c0.006-1.065-0.094-2.14-0.317-3.208c-1.322-6.321-5.2-11.654-9.844-13.809
				c-1.213-2.945-3.031-6.543-5.675-10.182c-2.16-3.007-4.946-6.035-8.418-8.688c-1.226-5.079-2.548-9.937-3.915-13.844
				c-0.882-2.515-1.777-4.634-2.704-6.192C89.672,1.296,88.754,0.092,87.147,0c-0.104,0-0.231,0.009-0.38,0.03
				c-2.425,0.496-4.1,2.966-5.919,6.194c-1.34,2.467-2.644,5.486-3.857,8.606c-1.812-0.204-3.686-0.325-5.664-0.319
				c-4.6,0.003-9.633,0.59-15.153,1.9c-5.051,1.198-9.484,2.727-13.409,4.504c-1.284-1.653-2.583-3.211-3.846-4.557
				c-2.514-2.594-4.751-4.516-7.171-4.601c-0.186,0.003-0.372,0.023-0.558,0.05c-1.328,0.263-2.01,1.349-2.521,2.573
				c-1.406,3.491-1.827,10.123-1.892,17.737c-1.608,1.729-3.013,3.512-4.197,5.315c-5.734,8.727-6.858,17.754-6.858,23.619
				c-0.006,0.18,0,0.348,0.007,0.522c-1.702,3.028-2.714,6.773-2.729,10.668c-0.006,0.044,0,0.095,0.004,0.142
				c0.125,9.167,8.005,16.866,15.912,16.922c0.006,0,0.012,0,0.018,0.006c1.865-0.006,3.717-0.487,5.442-1.473
				c3.96,7.316,10.12,13.257,17.566,17.007c-17.699-0.734-38.794-1.222-41.037,0.428c-7.682,5.651-7.682,25.823,3.417,26.635
				c4.722,0.349,17.473-2.102,30.574-5.014c-2.783,4.002-5.105,8.443-6.661,13.186c-18.812-2.349-31.002-1.582-37.669,2.281
				l0.012,0.018c-1.532,0.889-2.574,2.526-2.581,4.43c0,2.849,2.306,5.153,5.148,5.153c0.944-0.003,1.809-0.274,2.567-0.711
				l0.009,0.012c3.425-1.978,11.607-3.389,30.557-1.06c-0.614,10.314,2.975,21.461,13.666,32.28
				c-23.565-11.587-38.432-3.884-27.827,19.581c12.121,3.468,48.736-0.487,52.362-2.963c2.125-1.464-7.646-24.666-9.812-44.227
				c1.558,0.188,3.048,0.304,4.453,0.298c6.201,0.006,10.908-1.892,14.045-5.657c5.253-6.304,3.906-15.612,2.485-20.963
				c24.306,4.772,12.219,38.749,15.748,40.535c9.293,4.684,32.431,0.927,44.005-3.904
				C152.078,140.02,138.128,133.831,116.714,148.799z M27.449,54.866c-0.599-0.124-1.21-0.198-1.806-0.192
				c-1.287,0.018-2.523,0.316-3.68,0.829c0.586-4.196,1.98-9.083,4.908-13.874C26.997,46.249,27.215,50.823,27.449,54.866z
				 M57.519,22.09c5.125-1.216,9.707-1.744,13.809-1.744c1.251,0.006,2.451,0.074,3.612,0.166c-0.906,2.659-1.712,5.206-2.361,7.366
				c-0.791-0.042-1.579-0.115-2.37-0.112c-7.012-0.006-13.599,1.771-19.354,4.884c-1.309-2.072-2.83-4.421-4.474-6.782
				c-0.028-0.042-0.059-0.086-0.086-0.13C49.571,24.333,53.284,23.105,57.519,22.09z M75.252,142.938
				c-1.601,1.898-5.441,2.408-10.871,1.494c0.622-7.779,3.524-13.859,10.48-15.916C76.185,132.016,77.896,139.766,75.252,142.938z
				 M98.071,89.268c-1.965-0.188-3.854-0.28-5.682-0.318l-4.734-11.1l-2.079,11.235c-7.85,0.522-14.101,2.222-18.824,4.093
				l-6.819-8.364l1.142,11.038c-3.566,1.983-5.345,3.624-5.345,3.624c-5.97-6.006-10.76-16.364-12.941-20.889
				c2.73-1.9,5.61-3.571,8.575-5.046l7.388,8.192l-1.688-10.754c8.601-3.467,17.53-5.468,25.369-6.61l4.968,9.075l0.825-9.786
				c5.523-0.573,10.197-0.726,13.328-0.741C101.627,76.067,99.483,85.03,98.071,89.268z M99.579,33.201
				c0.475,0.584,0.938,1.166,1.372,1.753c1.507,2.075,2.698,4.141,3.646,6.065c-1.031,0.304-2.041,0.806-2.993,1.526
				c-0.061-0.083-0.146-0.147-0.211-0.233C100.872,39.538,100.252,36.436,99.579,33.201z"/>
		</g>
	</g>
</g>
<g>
	<g>
		<path d="M254.804,104.837v38.52h-19.481v-39.035c0-5.503-0.838-9.546-2.517-12.126c-1.676-2.581-4.386-3.871-8.128-3.871
			c-3.739,0-7.053,1.399-9.934,4.193c-2.88,2.795-4.321,6.901-4.321,12.319v38.52h-19.351V74.63h19.351v6.083
			c5.33-6.021,11.436-9.032,18.318-9.032c4.389,0,8.364,1.291,11.935,3.871c3.568,2.581,6.257,5.721,8.063,9.419
			c2.665-4.213,6.256-7.483,10.772-9.806c4.518-2.322,9.051-3.484,13.611-3.484c8.172,0,14.75,2.433,19.741,7.29
			c4.987,4.86,7.481,11.892,7.481,21.093v43.293h-19.481v-39.035c0-10.663-3.913-15.997-11.74-15.997
			c-3.869,0-7.225,1.399-10.063,4.193C256.224,95.313,254.804,99.419,254.804,104.837z"/>
		<path d="M383.716,107.547c0,10.063-3.482,18.535-10.45,25.416c-6.965,6.882-15.718,10.32-26.254,10.32s-19.286-3.438-26.254-10.32
			c-6.965-6.881-10.45-15.353-10.45-25.416c0-10.062,3.485-18.556,10.45-25.479c6.968-6.923,15.718-10.387,26.254-10.387
			s19.289,3.464,26.254,10.387C380.234,88.992,383.716,97.486,383.716,107.547z M329.789,107.547c0,5.677,1.614,10.301,4.84,13.869
			c3.226,3.569,7.352,5.354,12.383,5.354s9.161-1.784,12.386-5.354c3.226-3.568,4.837-8.192,4.837-13.869s-1.611-10.32-4.837-13.933
			s-7.354-5.418-12.386-5.418s-9.158,1.806-12.383,5.418S329.789,101.871,329.789,107.547z"/>
		<path d="M412.808,103.548v39.809h-19.352V74.566h19.352v6.018c5.849-5.935,12.427-8.902,19.74-8.902
			c7.311,0,13.437,2.581,18.383,7.741c4.946,5.162,7.42,12.043,7.42,20.642v43.293H439v-40.325c0-10.664-3.917-15.997-11.743-15.997
			c-3.869,0-7.245,1.399-10.125,4.192C414.248,94.024,412.808,98.13,412.808,103.548z"/>
		<path d="M525.564,120.642c0,6.838-2.515,12.321-7.547,16.449c-5.031,4.129-11.418,6.192-19.159,6.192
			c-5.158,0-10.535-0.926-16.125-2.772c-5.593-1.85-10.624-4.581-15.096-8.193l8.515-12.128c7.225,5.593,14.921,8.386,23.093,8.386
			c2.494,0,4.472-0.492,5.935-1.482c1.461-0.987,2.193-2.301,2.193-3.936c0-1.632-1.013-3.139-3.031-4.516
			c-2.021-1.373-4.946-2.665-8.773-3.87c-3.828-1.203-6.753-2.235-8.771-3.096c-2.021-0.859-4.323-2.107-6.902-3.742
			c-5.248-3.267-7.871-8.105-7.871-14.513s2.582-11.632,7.741-15.675c5.161-4.042,11.825-6.065,19.997-6.065
			s16.341,2.755,24.513,8.258L517.05,92.84c-6.021-4.129-12.021-6.193-17.996-6.193c-5.979,0-8.966,1.635-8.966,4.903
			c0,1.807,0.944,3.226,2.836,4.257c1.892,1.032,5.032,2.237,9.417,3.612c4.389,1.377,7.505,2.432,9.355,3.161
			c1.848,0.731,4.063,1.871,6.644,3.419C523.156,108.924,525.564,113.805,525.564,120.642z"/>
		<path d="M561.419,86.777v31.092c0,2.667,0.688,4.753,2.066,6.257c1.372,1.505,2.054,1.985,4.918,2.018l9.074-0.031v17.245
			c0,0-5.132,0-11.797,0c-6.667,0-12.238-2.267-16.84-6.653c-4.604-4.386-6.902-10.363-6.902-17.932V86.777h-10.533V71.742h10.533
			v-19.67h19.48v19.67h15.986v15.035H561.419z"/>
		<path d="M881.919,86.777v31.092c0,2.667,0.688,4.753,2.066,6.257c1.372,1.505,2.054,1.985,4.918,2.018l9.074-0.031v17.245
			c0,0-5.132,0-11.797,0c-6.667,0-12.238-2.267-16.84-6.653c-4.604-4.386-6.902-10.363-6.902-17.932V86.777h-10.533V71.742h10.533
			v-19.67h19.48v19.67h15.986v15.035H881.919z"/>
		<path d="M647.001,131.936c-7.826,7.398-17.008,11.095-27.543,11.095c-10.536,0-20.756-3.244-27.636-9.74
			c-6.882-6.492-10.32-15.2-10.32-26.124c0-10.922,3.503-19.61,10.513-26.061c7.009-6.451,16.801-9.677,26.349-9.677
			c9.544,0,17.65,2.883,24.317,8.645c6.664,5.764,9.999,13.676,9.999,23.738v10.321h-50.575c0.603,3.786,2.582,6.882,5.935,9.288
			c3.355,2.408,7.14,3.612,11.354,3.612c6.794,0,12.387-2.278,16.771-6.838L647.001,131.936z M628.424,90.782
			c-2.665-2.235-5.914-3.354-9.739-3.354c-3.828,0-7.334,1.162-10.516,3.482c-3.181,2.323-5.031,5.465-5.548,9.419h30.447
			C632.638,96.2,631.089,93.019,628.424,90.782z"/>
		<path d="M700.542,89.621c-5.764,0-10.063,2.044-12.902,6.128c-2.836,4.086-4.256,9.481-4.256,16.191v31.417h-19.351V71.742h19.351
			v10.01c2.494-2.84,5.61-5.246,9.353-7.225c3.742-1.978,7.549-3.011,11.418-3.098l0.13,18.191H700.542z"/>
		<path d="M746.762,125.873c6.448,0,12.256-3.226,17.415-9.676l11.483,12.901c-8.948,9.289-18.623,13.933-29.028,13.933
			c-10.409,0-19.204-3.289-26.384-9.868c-7.184-6.58-10.772-15.18-10.772-25.803c0-10.621,3.634-19.266,10.902-25.932
			c7.266-6.664,15.889-9.999,25.867-9.999c4.987,0,10.04,1.033,15.157,3.098s9.612,5.117,13.484,9.158l-10.063,13.16
			c-2.237-2.665-4.968-4.729-8.193-6.192c-3.226-1.462-6.431-2.193-9.611-2.193c-5.076,0-9.441,1.656-13.095,4.967
			c-3.656,3.312-5.483,7.915-5.483,13.804c0,5.894,1.827,10.473,5.483,13.741C737.577,124.241,741.856,125.873,746.762,125.873z"/>
		<path d="M844.937,143.357h-18.191v-9.743c-4.987,6.278-11.158,9.417-18.513,9.417s-13.525-2.128-18.514-6.385
			c-4.99-4.259-7.483-9.936-7.483-17.029c0-7.097,2.582-12.406,7.74-15.934c5.162-3.525,12.213-5.291,21.16-5.291h14.449v-0.387
			c0-7.395-3.916-11.094-11.739-11.094c-3.355,0-6.903,0.667-10.646,1.999c-3.742,1.335-6.902,2.989-9.482,4.967l-8.644-12.513
			c9.116-6.623,19.522-9.936,31.221-9.936c8.429,0,15.308,2.108,20.644,6.323c5.33,4.214,7.998,10.881,7.998,19.995V143.357z
			 M825.455,115.552v-3.354h-12.126c-7.741,0-11.613,2.408-11.613,7.225c0,2.495,0.924,4.407,2.774,5.739
			c1.851,1.336,4.494,2,7.936,2c3.438,0,6.469-1.052,9.096-3.161C824.143,121.896,825.455,119.08,825.455,115.552z"/>
	</g>
	<g>
		<g>
			<path d="M118.714,148.799c6.891-19.812,3.928-30.436-2.981-36.326c12.168-2.939,22.73-5.861,23.923-7.39
				c5.77-7.422-0.037-26.832-10.942-24.754c-3.828,0.729-12.394,4.692-21.879,9.526c2.754-4.45,4.657-9.453,5.531-14.818
				c6.239-2.042,11.103-8.945,11.138-16.314c0.006-1.065-0.094-2.14-0.317-3.208c-1.322-6.321-5.2-11.654-9.844-13.809
				c-1.213-2.945-3.031-6.543-5.675-10.182c-2.16-3.007-4.946-6.035-8.418-8.688c-1.226-5.079-2.548-9.937-3.915-13.844
				c-0.882-2.515-1.777-4.634-2.704-6.192C91.672,1.296,90.754,0.092,89.147,0c-0.104,0-0.231,0.009-0.38,0.03
				c-2.425,0.496-4.1,2.966-5.919,6.194c-1.34,2.467-2.644,5.486-3.857,8.606c-1.812-0.204-3.686-0.325-5.664-0.319
				c-4.6,0.003-9.633,0.59-15.153,1.9c-5.051,1.198-9.484,2.727-13.409,4.504c-1.284-1.653-2.583-3.211-3.846-4.557
				c-2.514-2.594-4.751-4.516-7.171-4.601c-0.186,0.003-0.372,0.023-0.558,0.05c-1.328,0.263-2.01,1.349-2.521,2.573
				c-1.406,3.491-1.827,10.123-1.892,17.737c-1.608,1.729-3.013,3.512-4.197,5.315c-5.734,8.727-6.858,17.754-6.858,23.619
				c-0.006,0.18,0,0.348,0.007,0.522c-1.702,3.028-2.714,6.773-2.729,10.668c-0.006,0.044,0,0.095,0.004,0.142
				c0.125,9.167,8.005,16.866,15.912,16.922c0.006,0,0.012,0,0.018,0.006c1.865-0.006,3.717-0.487,5.442-1.473
				c3.96,7.315,10.12,13.257,17.566,17.007c-17.699-0.734-38.794-1.222-41.037,0.428c-7.682,5.651-7.682,25.823,3.417,26.635
				c4.722,0.349,17.473-2.102,30.574-5.014c-2.783,4.002-5.105,8.443-6.661,13.186c-18.812-2.349-31.002-1.582-37.669,2.281
				l0.012,0.018c-1.532,0.889-2.574,2.526-2.581,4.43c0,2.849,2.306,5.153,5.148,5.153c0.944-0.003,1.809-0.274,2.567-0.711
				l0.009,0.012c3.425-1.978,11.607-3.389,30.557-1.06c-0.614,10.314,2.975,21.461,13.666,32.28
				c-23.565-11.587-38.432-3.884-27.827,19.581c12.121,3.468,48.736-0.487,52.362-2.963c2.125-1.464-7.646-24.666-9.812-44.227
				c1.558,0.188,3.048,0.304,4.453,0.298c6.201,0.006,10.908-1.892,14.045-5.657c5.253-6.304,3.906-15.612,2.485-20.963
				c24.306,4.772,12.219,38.749,15.748,40.535c9.293,4.684,32.431,0.927,44.005-3.904
				C154.078,140.02,140.128,133.831,118.714,148.799z M29.449,54.866c-0.599-0.124-1.21-0.198-1.806-0.192
				c-1.287,0.018-2.523,0.316-3.68,0.829c0.586-4.196,1.98-9.083,4.908-13.874C28.997,46.249,29.215,50.823,29.449,54.866z
				 M59.519,22.09c5.125-1.216,9.707-1.744,13.809-1.744c1.251,0.006,2.451,0.074,3.612,0.166c-0.906,2.659-1.712,5.206-2.361,7.366
				c-0.791-0.042-1.579-0.115-2.37-0.112c-7.012-0.006-13.599,1.771-19.354,4.884c-1.309-2.072-2.83-4.421-4.474-6.782
				c-0.028-0.042-0.059-0.086-0.086-0.13C51.571,24.333,55.284,23.105,59.519,22.09z M77.252,142.938
				c-1.601,1.898-5.441,2.408-10.871,1.494c0.622-7.779,3.524-13.859,10.48-15.916C78.185,132.016,79.896,139.766,77.252,142.938z
				 M100.071,89.268c-1.965-0.188-3.854-0.28-5.682-0.318l-4.734-11.1l-2.079,11.235c-7.85,0.522-14.101,2.222-18.824,4.093
				l-6.819-8.364l1.142,11.038c-3.566,1.982-5.345,3.624-5.345,3.624c-5.97-6.006-10.76-16.364-12.941-20.889
				c2.73-1.9,5.61-3.571,8.575-5.046l7.388,8.192l-1.688-10.754c8.601-3.467,17.53-5.468,25.369-6.61l4.968,9.075l0.825-9.786
				c5.523-0.573,10.197-0.726,13.328-0.741C103.627,76.067,101.483,85.03,100.071,89.268z M101.579,33.201
				c0.475,0.584,0.938,1.166,1.372,1.753c1.507,2.075,2.698,4.141,3.646,6.065c-1.031,0.304-2.041,0.806-2.993,1.526
				c-0.061-0.083-0.146-0.147-0.211-0.233C102.872,39.538,102.252,36.436,101.579,33.201z"/>
		</g>
	</g>
</g>
</svg>
