<svg enable-background="new 0 0 55.2 34" viewBox="0 0 55.2 34" xmlns="http://www.w3.org/2000/svg"><path d="m49.7 30c3 0 5.5-2.5 5.5-5.5v-15c0-3-2.5-5.5-5.5-5.5h-44.2c-3 0-5.5 2.5-5.5 5.5v15c0 3 2.5 5.5 5.5 5.5zm-.3-4.5c-1.8 0-3.2-1.5-3.2-3.2 0-1.8 1.4-3.3 3.2-3.3s3.2 1.5 3.2 3.3c0 1.7-1.4 3.2-3.2 3.2zm-1.7-10.7c0-1 .8-1.7 1.7-1.7s1.7.8 1.7 1.7-.8 1.8-1.7 1.8c-.9-.1-1.7-.9-1.7-1.8zm6.2-2.9c0 1-.8 1.8-1.7 1.8-1 0-1.7-.8-1.7-1.8 0-.9.8-1.7 1.7-1.7 1 0 1.7.8 1.7 1.7zm-4.5-4.5c.9 0 1.7.8 1.7 1.7 0 1-.8 1.8-1.7 1.8-1 0-1.7-.8-1.7-1.8 0-.9.8-1.7 1.7-1.7zm-2.8 2.8c1 0 1.8.8 1.8 1.7 0 1-.8 1.8-1.8 1.8s-1.8-.8-1.8-1.8c0-.9.8-1.7 1.8-1.7zm-34.9-1.3h31.9v16.3h-31.9zm-5.6-1.5c1.8 0 3.2 1.5 3.2 3.2 0 1.8-1.4 3.3-3.2 3.3s-3.2-1.5-3.2-3.3c-.1-1.7 1.4-3.2 3.2-3.2zm1.7 10.7c0 1-.8 1.8-1.7 1.8-1 0-1.7-.8-1.7-1.8 0-.9.8-1.8 1.7-1.8s1.7.9 1.7 1.8zm-6.3 2.8c0-1 .8-1.8 1.7-1.8 1 0 1.7.8 1.7 1.8 0 .9-.8 1.7-1.7 1.7-.9.1-1.7-.7-1.7-1.7zm4.6 4.6c-1 0-1.7-.8-1.7-1.7 0-1 .8-1.7 1.7-1.7 1 0 1.7.8 1.7 1.7s-.8 1.7-1.7 1.7zm1-4.6c0-1 .8-1.8 1.8-1.8s1.8.8 1.8 1.8c0 .9-.8 1.7-1.8 1.7-1 .1-1.8-.7-1.8-1.7z"/></svg>