<svg xmlns="http://www.w3.org/2000/svg" viewBox="0 0 596.12 159.97"><g data-name="Layer 2"><g data-name="NINTENDO SWITCH ONLINE LOGO"><path fill="#e60012" d="M0 0h596.12v159.97H0z"/><path d="M46.44 60.5a9.16 9.16 0 1 0 9.16-9.16 9.16 9.16 0 0 0-9.16 9.16zm57.27-29.22H88.64a.63.63 0 0 0-.63.63V128a.71.71 0 0 0 .71.71h15a25 25 0 0 0 25-25V56.25a25 25 0 0 0-25.01-24.97zm3.57 63.42a9.85 9.85 0 1 1 9.85-9.85 9.85 9.85 0 0 1-9.85 9.85zM77.55 31.28h-21.3a25 25 0 0 0-25 25v47.46a25 25 0 0 0 25 25h21.3a.71.71 0 0 0 .71-.71V32a.71.71 0 0 0-.71-.72zm-7.14 89.56H56.25a17.14 17.14 0 0 1-17.12-17.13V56.25a17.14 17.14 0 0 1 17.12-17.12h14.16zM188 46.51c-20.48 0-37.08 16.35-37.08 36.53s16.6 36.54 37.08 36.54 37.09-16.36 37.09-36.58-16.6-36.49-37.09-36.49zm0 59.1c-12.05 0-21.81-10.1-21.81-22.57S176 60.47 188 60.47 209.83 70.58 209.83 83s-9.77 22.61-21.83 22.61zm202.9 11.74h14.73V48.73H390.9zm173.94-55.24V48.73h-56.66v68.62h56.66V104h-41.92V88.47h39.89V75.76h-39.89V62.11zM473.57 93l-34.16-44.27h-13.82v68.62h13.87V71.6L476 117.35h12.16V48.73h-14.59zm-183.83 0l-34.16-44.27h-13.83v68.62h13.88V71.6l36.52 45.75h12.15V48.73h-14.56zM339 48.73h-14.75v68.62h52.35V104H339z" fill="#fff"/></g></g></svg>