<?xml version="1.0" encoding="utf-8"?>
<!-- Generator: Adobe Illustrator 23.0.4, SVG Export Plug-In . SVG Version: 6.00 Build 0)  -->
<svg version="1.1" id="Layer_1" xmlns="http://www.w3.org/2000/svg" xmlns:xlink="http://www.w3.org/1999/xlink" x="0px" y="0px"
	 viewBox="0 0 42 34" style="enable-background:new 0 0 42 34;" xml:space="preserve">
<g>
	<g>
		<polygon points="36.4,11.3 34.9,19.7 39.7,19.7 		"/>
	</g>
	<g>
		<path d="M26.5,22.9h-1.7v1.2l0,0c0,0,0,0,0,0.1v2.4c0,1.8,1.5,3.3,3.3,3.3h9.1c1.8,0,3.3-1.5,3.3-3.3v-2.4v-0.1l0,0v-1.2h-1.7
			H26.5z M35.8,23.3c0.7,0,1.2,0.6,1.2,1.2c0,0.7-0.6,1.2-1.2,1.2c-0.7,0-1.2-0.5-1.2-1.2C34.6,23.9,35.1,23.3,35.8,23.3z
			 M28.7,28.7c-1.2,0-2.2-1-2.2-2.2s1-2.2,2.2-2.2s2.3,1,2.3,2.2C30.9,27.7,29.9,28.7,28.7,28.7z M32.6,26.5c0-0.7,0.6-1.2,1.2-1.2
			c0.7,0,1.2,0.5,1.2,1.2s-0.5,1.2-1.2,1.2C33.2,27.7,32.6,27.1,32.6,26.5z M35.8,29.6c-0.7,0-1.2-0.5-1.2-1.2s0.5-1.2,1.2-1.2
			s1.2,0.5,1.2,1.2S36.5,29.6,35.8,29.6z M37.7,27.7c-0.7,0-1.2-0.5-1.2-1.2s0.5-1.2,1.2-1.2s1.2,0.5,1.2,1.2
			C38.9,27.1,38.4,27.7,37.7,27.7z"/>
	</g>
	<g>
		<path d="M1.5,24.2L1.5,24.2v2.5C1.5,28.5,3,30,4.8,30h9.1c1.8,0,3.3-1.5,3.3-3.3v-2.4v-0.1l0,0V23h-1.7H3.2H1.5V24.2L1.5,24.2z
			 M12.5,29.6c-0.7,0-1.2-0.5-1.2-1.2s0.5-1.2,1.2-1.2s1.2,0.5,1.2,1.2S13.2,29.6,12.5,29.6z M15.7,26.5c0,0.7-0.6,1.2-1.2,1.2
			c-0.7,0-1.2-0.5-1.2-1.2s0.5-1.2,1.2-1.2C15.1,25.3,15.7,25.8,15.7,26.5z M12.5,23.3c0.7,0,1.2,0.6,1.2,1.2c0,0.7-0.5,1.2-1.2,1.2
			s-1.2-0.5-1.2-1.2C11.3,23.9,11.8,23.3,12.5,23.3z M10.6,25.3c0.7,0,1.2,0.5,1.2,1.2s-0.5,1.2-1.2,1.2s-1.2-0.5-1.2-1.2
			C9.3,25.8,9.9,25.3,10.6,25.3z M5.4,24.2c1.2,0,2.3,1,2.3,2.2s-1,2.2-2.3,2.2c-1.2,0-2.2-1-2.2-2.2C3.1,25.2,4.2,24.2,5.4,24.2z"
			/>
	</g>
	<g>
		<path d="M32.5,19.7L35.8,4H9.3L6,19.7H32.5z M12.1,6.9h19.7l-2.1,9.9H10L12.1,6.9z"/>
	</g>
</g>
</svg>
