<?xml version="1.0" encoding="utf-8"?>
<!-- Generator: Adobe Illustrator 23.0.6, SVG Export Plug-In . SVG Version: 6.00 Build 0)  -->
<svg version="1.1" id="Layer_1" xmlns="http://www.w3.org/2000/svg" xmlns:xlink="http://www.w3.org/1999/xlink" x="0px" y="0px"
	 viewBox="0 0 56 34" style="enable-background:new 0 0 56 34;" xml:space="preserve">
<style type="text/css">
	.st0{fill-rule:evenodd;clip-rule:evenodd;}
</style>
<g>
	<path id="SVGID_1_" class="st0" d="M20.8,17.2l2-6.2h2L22,19h-2.4l-2.8-8h2L20.8,17.2z M7.5,12.7v-1.8h6.6v1.7h-2.4V19H9.9v-6.3
		H7.5z M38.6,18.2H56V30H38.6v-1.3V18.2z M27.5,26.8h1.1v2.1h8.7V30h-8.7h-1.1v-1.1C27.5,28.9,27.5,26.8,27.5,26.8z M3.7,22.2h25
		V7.4h-25C3.7,7.4,3.7,22.2,3.7,22.2z M0,4h32.4v21.5H17.7v1.3H24V30h-6.4l0,0h-2.9l0,0H8.4v-3.2h6.4v-1.3H0V4z"/>
</g>
</svg>
