<?xml version="1.0" encoding="UTF-8"?>
<svg width="420px" height="125px" viewBox="0 0 420 125" version="1.1" xmlns="http://www.w3.org/2000/svg" xmlns:xlink="http://www.w3.org/1999/xlink">
    <title>Group</title>
    <defs>
        <polygon id="path-1" points="0.00133636064 0.334751773 34.3824095 0.334751773 34.3824095 42.2102128 0.00133636064 42.2102128"></polygon>
        <polygon id="path-3" points="0 120 301 120 301 0.85106383 0 0.85106383"></polygon>
        <polygon id="path-5" points="0 0 84 0 84 125 0 125"></polygon>
    </defs>
    <g id="Symbols" stroke="none" stroke-width="1" fill="none" fill-rule="evenodd">
        <g id="footer/D/organism/global-draft" transform="translate(-76.000000, -612.000000)">
            <g id="Group" transform="translate(76.000000, 612.000000)">
                <g id="logo+tag" transform="translate(119.000000, 3.000000)">
                    <g id="Group-3" transform="translate(3.401130, 0.000000)">
                        <mask id="mask-2" fill="white">
                            <use xlink:href="#path-1"></use>
                        </mask>
                        <g id="Clip-2"></g>
                        <path d="M7.56920477,16.9387234 C7.56920477,23.0510638 11.960021,26.7009929 17.1921634,26.7009929 C22.4237248,26.7009929 26.8157031,23.0510638 26.8157031,16.9387234 C26.8157031,10.826383 22.4237248,7.17702128 17.1921634,7.17702128 C11.960021,7.17702128 7.56920477,10.826383 7.56920477,16.9387234 L7.56920477,16.9387234 Z M25.7872865,42.2102128 C18.2670622,42.2102128 15.0429469,38.9262411 14.9035006,33.4062411 C6.07480496,32.311773 0.00133636064,25.0124823 0.00133636064,16.9387234 C0.00133636064,7.67914894 7.24266795,0.334468085 17.1921634,0.334468085 C27.142821,0.334468085 34.3824095,7.67914894 34.3824095,16.7571631 C34.3824095,24.2374468 29.898048,30.3963121 22.3307606,32.5398582 L22.3307606,32.7219858 C22.2377964,34.7287943 23.2185689,35.4595745 26.1144043,35.4595745 L28.4977744,35.4595745 L28.4977744,42.2102128 L25.7872865,42.2102128 Z" id="Fill-1" fill="#FFFFFF" mask="url(#mask-2)"></path>
                    </g>
                    <path d="M47.1007179,14.3417563 L54.1055478,14.3417563 C56.8810671,14.3417563 58.0268935,12.8172511 58.0268935,10.6457076 C58.0268935,8.47416413 56.8810671,6.949659 54.1055478,6.949659 L47.1007179,6.949659 L47.1007179,14.3417563 Z M50.9332909,20.4397768 L47.1007179,20.4397768 L47.1007179,33.1914894 L39.9632768,33.1914894 L39.9632768,0.85106383 L53.4002974,0.85106383 C60.8024128,0.85106383 64.9434986,4.27013867 64.9434986,10.3687338 C64.9434986,15.3111645 62.2556561,17.9918341 58.2477295,19.7927384 L65.4717514,33.1914894 L57.8066055,33.1914894 L50.9332909,20.4397768 Z" id="Fill-4" fill="#FFFFFF"></path>
                    <path d="M87.2371462,20.5326427 L84.6931392,13.7414923 L84.2220702,12.5399104 C83.8922047,11.8009174 83.6097977,10.9228604 83.3268048,9.90631402 C82.9975252,10.8763142 82.7614048,11.846889 82.4321252,12.5399104 L81.9616421,13.7414923 L79.4176351,20.5326427 L87.2371462,20.5326427 Z M100.333333,33.1914894 L92.0421673,33.1914894 L89.6393638,26.9083249 L77.0148316,26.9083249 L74.612614,33.1914894 L66.3220339,33.1914894 L79.7475006,0.85106383 L86.9078667,0.85106383 L100.333333,33.1914894 Z" id="Fill-6" fill="#FFFFFF"></path>
                    <polygon id="Fill-8" fill="#FFFFFF" points="96.9322034 0.85106383 122.440678 0.85106383 122.440678 7.41120701 113.273183 7.41120701 113.273183 33.1914894 106.099699 33.1914894 106.099699 7.41120701 96.9322034 7.41120701"></polygon>
                    <polygon id="Fill-10" fill="#FFFFFF" points="125.841808 0.85106383 148.666103 0.85106383 148.666103 7.41120701 133.07676 7.41120701 133.07676 13.2789034 147.415 13.2789034 147.415 19.6551603 133.07676 19.6551603 133.07676 26.6307715 148.799435 26.6307715 148.799435 33.1914894 125.841808 33.1914894"></polygon>
                    <path d="M165.983431,13.7336372 C172.920806,15.1553341 176.008475,17.9987277 176.008475,23.1959606 C176.008475,28.5716654 171.891026,33.1914894 164.238373,33.1914894 C156.138182,33.1914894 152.065265,28.9263989 150.5,23.1075535 L156.63025,20.1752002 C157.749091,24.4402907 159.808094,26.8836421 164.238373,26.8836421 C167.103386,26.8836421 168.892976,25.5067014 168.892976,23.6849624 C168.892976,21.241611 166.566231,19.9972809 161.86654,19.109342 C155.556496,17.909768 152.020734,14.8890076 152.020734,9.78018183 C152.020734,4.36027351 156.496657,0.85106383 163.299325,0.85106383 C169.519193,0.85106383 173.278167,3.51653816 175.471319,8.98065004 L170.055792,12.1793297 C168.937507,8.84693429 166.744355,6.71466533 163.164619,6.71466533 C160.478842,6.71466533 158.554546,7.87003573 158.554546,9.64701862 C158.554546,11.3344893 160.345249,12.5346158 165.983431,13.7336372" id="Fill-12" fill="#FFFFFF"></path>
                    <path d="M33.3593575,75.3100515 L39.4463004,75.3100515 L39.4463004,45.5410123 L32.3342067,45.5410123 L22.1073446,69.2794332 L11.8804825,45.5410123 L4.76838888,45.5410123 L4.76838888,75.3100515 L10.8553318,75.3100515 L10.8553318,54.8680818 L13.0857829,61.3826284 C13.3439777,62.058583 13.5757663,62.7262605 13.7881902,63.4038705 L19.1169792,75.3100515 L25.0977101,75.3100515 L30.4264991,63.4038705 C30.638923,62.7262605 30.8718851,62.0580312 31.135948,61.3627636 L33.3593575,54.8680818 L33.3593575,75.3100515 Z M40.8135593,76.5957447 L31.9920986,76.5957447 L31.9920986,62.9889172 C31.89997,63.2604026 31.8113622,63.5296808 31.7268621,63.8017181 L31.7010426,63.8695894 L26.0054996,76.5957447 L18.2097765,76.5957447 L12.488414,63.8017181 C12.4033271,63.5296808 12.3153061,63.2598508 12.2225907,62.9889172 L12.2225907,76.5957447 L3.40112994,76.5957447 L3.40112994,44.2553191 L12.8023554,44.2553191 L22.1073446,65.8566199 L31.4129207,44.2553191 L40.8135593,44.2553191 L40.8135593,76.5957447 Z" id="Fill-14" fill="#FFFFFF"></path>
                    <path d="M45.5075155,44.732128 L45.5075155,63.4961663 C45.5075155,71.1642039 50.5073681,76.1189358 58.2449051,76.1189358 C65.9818873,76.1189358 70.9811851,71.1642039 70.9811851,63.4961663 L70.9811851,44.732128 L65.0469464,44.732128 L65.0469464,62.5791933 C65.0469464,67.5857863 62.5040184,70.5749247 58.2449051,70.5749247 C53.9852371,70.5749247 51.4417541,67.5857863 51.4417541,62.5791933 L51.4417541,44.732128 L45.5075155,44.732128 Z M58.2449051,77.4468085 C49.853187,77.4468085 44.2146893,71.8401082 44.2146893,63.4961663 L44.2146893,43.4042553 L52.7345803,43.4042553 L52.7345803,62.5791933 C52.7345803,66.8169879 54.7431772,69.247052 58.2449051,69.247052 C61.7466331,69.247052 63.7541203,66.8169879 63.7541203,62.5791933 L63.7541203,43.4042553 L72.2740113,43.4042553 L72.2740113,63.4961663 C72.2740113,71.8401082 66.6360684,77.4468085 58.2449051,77.4468085 L58.2449051,77.4468085 Z" id="Fill-16" fill="#FFFFFF"></path>
                    <path d="M74.7992256,68.0353235 C76.7985627,73.048853 80.7751449,75.2924396 87.6045178,75.2924396 C95.2588572,75.2924396 99.8290198,71.6359136 99.8290198,65.5103796 C99.8290198,60.7882758 97.1605239,58.211871 91.1753026,57.1574804 L86.0772545,56.2569133 C84.1017536,55.8966865 81.8338227,55.1555366 81.8338227,52.6037435 C81.8338227,51.1852106 82.5715833,48.8045811 87.5114984,48.8045811 C90.8479904,48.8045811 92.829305,50.0083205 94.0030944,52.7984002 L99.0435867,50.1929087 C97.1018054,45.8159291 93.5775303,43.8564966 87.6987001,43.8564966 C80.7513087,43.8564966 76.0834756,47.552737 76.0834756,53.054027 C76.0834756,57.9730249 78.9269644,60.8374994 84.7755633,61.810783 L89.8265203,62.6649233 C91.6694685,62.9658582 94.1251824,63.6779214 94.1251824,66.3650793 C94.1251824,68.857021 91.8450428,70.3449144 88.0260123,70.3449144 C83.8883902,70.3449144 81.4919762,68.9453996 79.9216913,65.5534502 L74.7992256,68.0353235 Z M87.6045178,76.5957447 C79.9734334,76.5957447 75.4340834,73.8409045 73.3167278,67.9262486 L73.1242938,67.3881458 L80.6286392,63.7517567 L80.8983957,64.4207494 C82.2570613,67.7897651 84.1889593,69.0416093 88.0260123,69.0416093 C91.0410058,69.0416093 92.7705865,68.0660882 92.7705865,66.3650793 C92.7705865,65.4471721 92.5252476,64.4274617 89.5951344,63.9492103 L84.5430147,63.0945106 C78.031652,62.010474 74.7288796,58.6319492 74.7288796,53.054027 C74.7288796,46.8714385 80.0623832,42.5531915 87.6987001,42.5531915 C94.3623821,42.5531915 98.4401229,45.0015033 100.531317,50.2577943 L100.744099,50.7931003 L93.2444044,54.6694541 L92.9920891,53.931101 C92.0392209,51.1443774 90.5543977,50.1078863 87.5114984,50.1078863 C84.6430106,50.1078863 83.1884187,50.9474832 83.1884187,52.6037435 C83.1884187,53.4746646 83.4308507,54.4473888 86.3278257,54.9765419 L91.4194787,55.8759902 C98.0808352,57.0489648 101.183616,60.1108928 101.183616,65.5103796 C101.183616,72.3479769 95.9803394,76.5957447 87.6045178,76.5957447 L87.6045178,76.5957447 Z" id="Fill-18" fill="#FFFFFF"></path>
                    <mask id="mask-4" fill="white">
                        <use xlink:href="#path-3"></use>
                    </mask>
                    <g id="Clip-21"></g>
                    <path d="M105.154425,75.3094997 L111.668218,75.3094997 L111.668218,45.5404605 L105.154425,45.5404605 L105.154425,75.3094997 Z M103.734463,76.5957447 L113.087571,76.5957447 L113.087571,44.2553191 L103.734463,44.2553191 L103.734463,76.5957447 Z" id="Fill-20" fill="#FFFFFF" mask="url(#mask-4)"></path>
                    <path d="M133.681434,43.856518 C123.862832,43.856518 117.005535,50.3200107 117.005535,59.5747478 C117.005535,68.9760391 123.631654,75.2924182 133.493676,75.2924182 C139.890964,75.2924182 144.079154,73.0594227 147.806163,67.613979 L142.766604,64.1677152 C140.292884,68.1425814 137.485306,69.8508901 133.493676,69.8508901 C127.671398,69.8508901 123.28078,65.4324453 123.28078,59.5747478 C123.28078,52.8287744 128.394856,49.2986055 133.446736,49.2986055 C137.295787,49.2986055 140.281736,51.1305344 142.331239,54.7457272 L147.580266,51.260867 C145.123561,46.6136409 139.973108,43.856518 133.681434,43.856518 M133.493676,76.5957447 C122.980953,76.5957447 115.638418,69.5963778 115.638418,59.5747478 C115.638418,49.7119781 123.2268,42.5531915 133.681434,42.5531915 C140.741745,42.5531915 146.494786,45.7896925 149.070013,51.2105239 L149.304711,51.7044455 L141.811382,56.6783423 L141.464029,55.9892014 C139.658026,52.4148424 136.960169,50.6024914 133.446736,50.6024914 C128.347916,50.6024914 124.647898,54.3754259 124.647898,59.5747478 C124.647898,64.7740697 128.367865,68.5475636 133.493676,68.5475636 C137.175505,68.5475636 139.626341,66.9119727 141.952201,62.9024257 L142.323611,62.260831 L149.649718,67.2710867 L149.309992,67.7896204 C145.263207,73.9616826 140.53345,76.5957447 133.493676,76.5957447" id="Fill-22" fill="#FFFFFF" mask="url(#mask-4)"></path>
                    <path d="M167.225047,75.3094997 L173.738839,75.3094997 L173.738839,45.5404605 L167.225047,45.5404605 L167.225047,75.3094997 Z M165.805085,76.5957447 L175.158192,76.5957447 L175.158192,44.2553191 L165.805085,44.2553191 L165.805085,76.5957447 Z" id="Fill-23" fill="#FFFFFF" mask="url(#mask-4)"></path>
                    <path d="M200.645431,75.3100515 L206.999756,75.3100515 L206.999756,45.5410123 L201.125644,45.5410123 L201.125644,68.0914085 L199.858856,65.2027374 C199.729176,64.9058692 199.418283,64.3038557 199.123247,63.8105469 L198.969216,63.542924 C198.840669,63.3166862 198.708157,63.0821713 198.562621,62.8835234 L187.085082,45.5410123 L180.729057,45.5410123 L180.729057,75.3100515 L186.60317,75.3100515 L186.60317,52.2028895 L187.880717,55.5429327 C187.986047,55.8160736 188.249937,56.313245 188.606133,56.9069815 L188.753934,57.1646719 C188.883048,57.3942206 189.017825,57.6320462 189.165626,57.8329013 L200.645431,75.3100515 Z M208.319209,76.5957447 L199.923413,76.5957447 L188.073822,58.5535516 C188.021723,58.4834731 187.971323,58.4095319 187.922623,58.3328318 L187.922623,76.5957447 L179.409605,76.5957447 L179.409605,44.2553191 L187.803702,44.2553191 L199.653859,62.1623213 C199.705958,62.2329517 199.756924,62.3079964 199.806191,62.3841448 L199.806191,44.2553191 L208.319209,44.2553191 L208.319209,76.5957447 Z" id="Fill-24" fill="#FFFFFF" mask="url(#mask-4)"></path>
                    <path d="M12.3143064,117.863243 L18.343215,117.863243 L18.343215,106.543625 L28.4190178,88.0942038 L21.7164724,88.0942038 L16.8223178,97.6331643 L16.5258048,98.3433305 L15.3645564,101.403611 L14.7230513,99.8983019 C14.548864,99.4883147 14.4000438,99.0788794 14.2585519,98.6882052 L14.1232608,98.3173959 L13.8154736,97.5901239 L8.94217636,88.0942038 L2.19566141,88.0942038 L12.3143064,106.543073 L12.3143064,117.863243 Z M19.6566658,119.148936 L11.0008556,119.148936 L11.0008556,106.866428 L0,86.8085106 L9.75166796,86.8085106 L15.0088537,97.0565337 L15.3296063,97.8119474 L15.628374,97.1001259 L20.9058534,86.8085106 L30.6101695,86.8085106 L19.6566658,106.865876 L19.6566658,119.148936 Z" id="Fill-25" fill="#FFFFFF" mask="url(#mask-4)"></path>
                    <path d="M47.1912448,93.1555506 C42.0524717,93.1555506 38.4639461,96.8450787 38.4639461,102.12766 C38.4639461,107.4108 42.0524717,111.100328 47.1912448,111.100328 C52.3300179,111.100328 55.9185434,107.4108 55.9185434,102.12766 C55.9185434,96.8450787 52.3300179,93.1555506 47.1912448,93.1555506 M47.1912448,112.403633 C41.3694558,112.403633 37.1426931,108.08203 37.1426931,102.12766 C37.1426931,96.1738486 41.3694558,91.8522455 47.1912448,91.8522455 C53.0130337,91.8522455 57.2397965,96.1738486 57.2397965,102.12766 C57.2397965,108.08203 53.0130337,112.403633 47.1912448,112.403633 M47.1912448,86.4096881 C38.0065239,86.4096881 31.0805732,93.1672971 31.0805732,102.12766 C31.0805732,111.088581 38.0065239,117.845631 47.1912448,117.845631 C56.3753989,117.845631 63.3007827,111.088581 63.3007827,102.12766 C63.3007827,93.1672971 56.3753989,86.4096881 47.1912448,86.4096881 M47.1912448,119.148936 C37.2537894,119.148936 29.759887,111.831409 29.759887,102.12766 C29.759887,92.4239098 37.2537894,85.106383 47.1912448,85.106383 C57.1275665,85.106383 64.6214689,92.4239098 64.6214689,102.12766 C64.6214689,111.831409 57.1275665,119.148936 47.1912448,119.148936" id="Fill-26" fill="#FFFFFF" mask="url(#mask-4)"></path>
                    <path d="M69.3154251,87.2853195 L69.3154251,106.049358 C69.3154251,113.717395 74.3152778,118.672127 82.0528147,118.672127 C89.7897969,118.672127 94.7890947,113.717395 94.7890947,106.049358 L94.7890947,87.2853195 L88.8548561,87.2853195 L88.8548561,105.132385 C88.8548561,110.138978 86.311928,113.128116 82.0528147,113.128116 C77.7931467,113.128116 75.2496637,110.138978 75.2496637,105.132385 L75.2496637,87.2853195 L69.3154251,87.2853195 Z M82.0528147,120 C73.6610966,120 68.0225989,114.3933 68.0225989,106.049358 L68.0225989,85.9574468 L76.5424899,85.9574468 L76.5424899,105.132385 C76.5424899,109.370179 78.5510868,111.800243 82.0528147,111.800243 C85.5545427,111.800243 87.5620299,109.370179 87.5620299,105.132385 L87.5620299,85.9574468 L96.0819209,85.9574468 L96.0819209,106.049358 C96.0819209,114.3933 90.443978,120 82.0528147,120 L82.0528147,120 Z" id="Fill-27" fill="#FFFFFF" mask="url(#mask-4)"></path>
                    <path d="M108.150165,99.7628899 L114.707933,99.7628899 C116.983791,99.7628899 118.089546,98.8121554 118.089546,96.8566108 C118.089546,94.9010662 116.983791,93.9508834 114.707933,93.9508834 L108.150165,93.9508834 L108.150165,99.7628899 Z M114.707933,101.048561 L106.834998,101.048561 L106.834998,92.6652122 L114.707933,92.6652122 C117.692739,92.6652122 119.404712,94.1931193 119.404712,96.8566108 C119.404712,99.520654 117.692739,101.048561 114.707933,101.048561 L114.707933,101.048561 Z M118.904046,117.863265 L125.289093,117.863265 L118.041004,105.332661 L118.71552,105.050144 C123.209663,103.166884 125.213456,100.557468 125.213456,96.5906479 C125.213456,91.1113709 121.22506,88.0947337 113.981487,88.0947337 L100.798217,88.0947337 L100.798217,117.863265 L106.834998,117.863265 L106.834998,105.61904 L111.824163,105.61904 L118.904046,117.863265 Z M127.542373,119.148936 L118.136395,119.148936 L111.056512,106.904711 L108.150165,106.904711 L108.150165,119.148936 L99.4830508,119.148936 L99.4830508,86.8085106 L113.981487,86.8085106 C121.955457,86.8085106 126.529187,90.3741791 126.529187,96.5906479 C126.529187,100.876403 124.418148,103.861588 119.901427,105.937974 L127.542373,119.148936 Z" id="Fill-28" fill="#FFFFFF" mask="url(#mask-4)"></path>
                    <path d="M165.310733,117.863243 L171.302077,117.863243 L171.302077,88.0942038 L165.310733,88.0942038 L165.310733,99.9838308 L151.845194,99.9838308 L151.845194,88.0942038 L145.85385,88.0942038 L145.85385,117.863243 L151.845194,117.863243 L151.845194,105.352841 L165.310733,105.352841 L165.310733,117.863243 Z M172.607345,119.148936 L164.005466,119.148936 L164.005466,106.638535 L153.150461,106.638535 L153.150461,119.148936 L144.548023,119.148936 L144.548023,86.8085106 L153.150461,86.8085106 L153.150461,98.6981376 L164.005466,98.6981376 L164.005466,86.8085106 L172.607345,86.8085106 L172.607345,119.148936 Z" id="Fill-29" fill="#FFFFFF" mask="url(#mask-4)"></path>
                    <path d="M188.05177,105.707649 L193.724499,105.707649 L191.137794,98.9072697 C191.053346,98.719106 190.970032,98.5176992 190.886718,98.2986347 C190.80397,98.5287351 190.717256,98.746696 190.620906,98.9475511 L190.182798,100.060531 L188.05177,105.707649 Z M195.61522,106.993342 L186.159916,106.993342 L189.4069,98.4448616 C189.613768,98.0094917 189.77813,97.4764532 189.952693,96.912514 C190.049042,96.5963328 190.150493,96.2696674 190.262145,95.9435538 L190.951329,93.9278297 L191.52546,95.9772136 C191.825844,97.0510157 192.082587,97.8042222 192.359168,98.4183752 L192.82618,99.5981229 L195.61522,106.993342 Z M199.775259,117.863243 L206.356509,117.863243 L193.906997,88.0942038 L187.868706,88.0942038 L175.420327,117.863243 L182.000443,117.863243 L184.325304,111.830417 L197.451532,111.830417 L199.775259,117.863243 Z M208.319209,119.148936 L198.860504,119.148936 L196.537343,113.116111 L185.239493,113.116111 L182.915199,119.148936 L173.457627,119.148936 L186.980588,86.8085106 L194.794548,86.8085106 L208.319209,119.148936 Z" id="Fill-30" fill="#FFFFFF" mask="url(#mask-4)"></path>
                    <path d="M230.404486,117.863243 L236.759695,117.863243 L236.759695,88.0942038 L230.885812,88.0942038 L230.885812,110.620873 L229.620207,107.758136 C229.487134,107.456853 229.174555,106.852633 228.882362,106.363738 L228.725506,106.090598 C228.598662,105.866015 228.467288,105.633707 228.32289,105.436715 L216.8458,88.0942038 L210.488893,88.0942038 L210.488893,117.863243 L216.362775,117.863243 L216.362775,94.7831191 L217.639706,98.0944688 C217.745598,98.3670579 218.009478,98.8647811 218.366226,99.4607248 L218.521949,99.7316584 C218.648793,99.9567926 218.780733,100.189652 218.925131,100.386093 L230.404486,117.863243 Z M238.079096,119.148936 L229.682496,119.148936 L217.833369,101.106743 C217.781273,101.036665 217.730875,100.962723 217.682176,100.886023 L217.682176,119.148936 L209.169492,119.148936 L209.169492,86.8085106 L217.564393,86.8085106 L229.414086,104.715513 C229.466182,104.786143 229.517146,104.861188 229.566411,104.937888 L229.566411,86.8085106 L238.079096,86.8085106 L238.079096,119.148936 Z" id="Fill-31" fill="#FFFFFF" mask="url(#mask-4)"></path>
                    <path d="M250.890329,111.386219 L253.78207,111.386219 C259.436213,111.386219 262.679177,108.322075 262.679177,102.978999 C262.679177,97.6353715 259.436213,94.5712281 253.78207,94.5712281 L250.890329,94.5712281 L250.890329,111.386219 Z M253.78207,112.671912 L249.591359,112.671912 L249.591359,93.2855349 L253.78207,93.2855349 C260.166535,93.2855349 263.978705,96.909755 263.978705,102.978999 C263.978705,109.048244 260.166535,112.671912 253.78207,112.671912 L253.78207,112.671912 Z M243.630036,117.863243 L253.109728,117.863243 C263.649223,117.863243 269.941143,112.298895 269.941143,102.978999 C269.941143,93.6585515 263.649223,88.0942038 253.109728,88.0942038 L243.630036,88.0942038 L243.630036,117.863243 Z M253.109728,119.148936 L242.330508,119.148936 L242.330508,86.8085106 L253.109728,86.8085106 C264.293133,86.8085106 271.240113,93.0046689 271.240113,102.978999 C271.240113,112.952778 264.293133,119.148936 253.109728,119.148936 L253.109728,119.148936 Z" id="Fill-32" fill="#FFFFFF" mask="url(#mask-4)"></path>
                    <path d="M274.61561,110.588515 C276.61611,115.602044 280.592692,117.845631 287.422065,117.845631 C295.075823,117.845631 299.645404,114.189105 299.645404,108.063571 C299.645404,103.341467 296.976908,100.765062 290.99285,99.7106719 L285.893639,98.8101048 C283.918138,98.449878 281.650207,97.7087281 281.650207,95.156935 C281.650207,93.7384021 282.387968,91.3577726 287.329045,91.3577726 C290.664375,91.3577726 292.645689,92.5615119 293.819479,95.3515917 L298.859971,92.7461002 C296.919352,88.3691206 293.394496,86.4096881 287.515084,86.4096881 C280.567693,86.4096881 275.89986,90.1059285 275.89986,95.6072185 C275.89986,100.526216 278.743349,103.390691 284.59311,104.363975 L289.642905,105.218674 C291.485853,105.51905 293.941567,106.231113 293.941567,108.918271 C293.941567,111.410212 291.661427,112.898106 287.842396,112.898106 C283.705937,112.898106 281.309523,111.498591 279.738657,108.106642 L274.61561,110.588515 Z M287.422065,119.148936 C279.791562,119.148936 275.25163,116.394096 273.133693,110.47944 L272.940678,109.941897 L280.444442,106.304948 L280.71478,106.973382 C282.074608,110.342957 284.006506,111.594801 287.842396,111.594801 C290.85739,111.594801 292.586971,110.61928 292.586971,108.918271 C292.586971,107.999804 292.341632,106.980653 289.4121,106.502402 L284.360562,105.647143 C277.848618,104.563665 274.545264,101.185141 274.545264,95.6072185 C274.545264,89.4246299 279.878767,85.106383 287.515084,85.106383 C294.179929,85.106383 298.25767,87.5546948 300.347701,92.8109858 L300.560483,93.3462918 L293.060789,97.2226456 L292.808473,96.4842925 C291.855605,93.6975689 290.371363,92.6610777 287.329045,92.6610777 C284.459395,92.6610777 283.004803,93.5006747 283.004803,95.156935 C283.004803,96.027856 283.247235,97.0005803 286.14421,97.5297334 L291.237026,98.4291817 C297.897219,99.6027157 301,102.664084 301,108.063571 C301,114.901168 295.797305,119.148936 287.422065,119.148936 L287.422065,119.148936 Z" id="Fill-33" fill="#FFFFFF" mask="url(#mask-4)"></path>
                </g>
                <g id="symbol">
                    <mask id="mask-6" fill="white">
                        <use xlink:href="#path-5"></use>
                    </mask>
                    <g id="Clip-2"></g>
                    <path d="M28.0052371,41.9686999 C28.0052371,34.2454978 34.2707552,27.985172 42.0004532,27.985172 C49.7289427,27.985172 55.9947629,34.2454978 55.9947629,41.9686999 C55.9947629,49.692204 49.7289427,55.9531337 42.0004532,55.9531337 C34.2707552,55.9531337 28.0052371,49.692204 28.0052371,41.9686999 M82.7884107,83.9383057 L43.2558531,83.9386076 L43.2558531,83.9177741 C65.8705753,83.2541204 84,64.7279764 84,41.9690019 C84,18.7900354 65.1961944,0 42.0004532,0 C18.804712,0 0,18.7900354 0,41.9690019 C0,65.1476664 18.8044098,83.9377018 42.0001511,83.9380038 L42.0001511,83.9386076 C42.0004532,106.514609 60.2320019,124.835739 82.7850871,125 C82.9530781,125 83.0908548,124.863819 83.0908548,124.695641 L83.0905527,84.240241 C83.0905527,84.0732708 82.9554952,83.9383057 82.7884107,83.9383057" id="Fill-1" fill="#FFFFFF" mask="url(#mask-6)"></path>
                </g>
            </g>
        </g>
    </g>
</svg>