<svg clip-rule="evenodd" fill-rule="evenodd" stroke-linejoin="round" stroke-miterlimit="2" viewBox="0 0 353 335" xmlns="http://www.w3.org/2000/svg"><g fill="#1a2456"><g fill-rule="nonzero"><path d="m291.6 249.2c16.4-23.1 26.2-51.3 26.2-81.8s-9.7-58.7-26.2-81.8l25.9-25.9c4.1-4.1 4.1-10.8 0-14.9l-18.6-18.6c-4.1-4.1-10.8-4.1-14.9 0l-25.9 25.9c-23.1-16.3-51.3-26.1-81.7-26.1-30.5 0-58.7 9.7-81.8 26.2l-25.9-25.9c-4.1-4.1-10.8-4.1-14.9 0l-18.6 18.6c-4.1 4.1-4.1 10.8 0 14.9l25.9 25.9c-16.4 23.1-26.1 51.3-26.1 81.7 0 30.5 9.7 58.7 26.2 81.8l-25.6 25.6c-2.1 2.1-3.6 6.1-3.4 9l1.2 21.1c.2 2.9 2.7 5.4 5.6 5.6l21.1 1.2c2.9.2 6.9-1.4 9-3.4l25.6-25.6c23.1 16.5 51.3 26.2 81.8 26.2s58.7-9.7 81.8-26.2l25.6 25.6c2.1 2.1 6.1 3.6 9 3.4l21.1-1.2c2.9-.2 5.4-2.7 5.6-5.6l1.2-21.1c.2-2.9-1.4-6.9-3.4-9zm-.1-215.5 18.6 18.6-7.4 7.4-18.6-18.6c4.7-4.7 7.4-7.4 7.4-7.4zm-14.3 14.3 18 19.1-10.1 10.1c-5.6-6.8-11.8-13-18.6-18.6 4-3.9 7.6-7.4 10.7-10.6zm-234.5 4.3 18.6-18.6s2.7 2.7 7.4 7.4l-18.6 18.6zm14.8 14.9 18.6-18.6c3 3 6.3 6.3 10.1 10.1-6.8 5.6-13 11.8-18.6 18.6zm-13.9 233-.7-11.8 11 12.4zm20.6-2-17.5-19.7c4.1-4.1 11.3-11.3 20.8-20.8 5.6 6.7 11.8 13 18.6 18.6zm187.2-22.3c-21.3 14.8-47.2 23.5-75 23.5-27.9 0-53.7-8.7-75-23.5-2.9-2-5.7-4.1-8.5-6.4-6.8-5.6-13-11.8-18.6-18.6-2.2-2.7-4.4-5.6-6.4-8.5-14.8-21.3-23.5-47.2-23.5-75 0-27.9 8.7-53.7 23.5-75 2-2.9 4.1-5.7 6.4-8.5 5.6-6.8 11.8-13 18.6-18.6 2.7-2.2 5.6-4.4 8.5-6.4 21.3-14.8 47.2-23.5 75-23.5 27.9 0 53.7 8.7 75 23.5 2.9 2 5.7 4.1 8.5 6.4 6.8 5.6 13 11.8 18.6 18.6 2.2 2.7 4.4 5.6 6.4 8.5 14.8 21.3 23.5 47.2 23.5 75 0 27.9-8.7 53.7-23.5 75-2 2.9-4.1 5.7-6.4 8.5-5.6 6.8-11.8 13-18.6 18.6-2.7 2.3-5.6 4.4-8.5 6.4zm37.1 22.3-21.9-21.9c6.7-5.6 13-11.8 18.6-18.6l20.8 20.8zm20.6 2-10.3.6 11-12.4z"/><path d="m286.2 231.3c-.4-.3-1-.1-1.3.3-.3.5-.6 1.1-1 1.6-.3.4-.1 1 .3 1.3.2.1.3.1.5.1.3 0 .6-.2.8-.4.3-.5.7-1.1 1-1.6s.2-1.1-.3-1.3z"/><path d="m280.9 237.9c-.3.5-.7 1-1.1 1.5-.3.4-.2 1 .2 1.3.2.1.4.2.5.2.3 0 .6-.1.8-.4.4-.5.7-1 1.1-1.6.3-.4.2-1-.3-1.3-.3-.2-.9-.1-1.2.3z"/><path d="m276.6 244c-.4.5-.8 1-1.1 1.5-.3.4-.3 1 .2 1.3.2.1.4.2.6.2.3 0 .6-.1.7-.4.4-.5.8-1 1.2-1.5.3-.4.2-1-.2-1.3-.5-.3-1.1-.2-1.4.2z"/><path d="m216.5 47.9c.6.2 1.2.4 1.8.6.1 0 .2.1.3.1.4 0 .8-.2.9-.6.2-.5-.1-1-.6-1.2-.6-.2-1.2-.4-1.8-.6-.5-.2-1 .1-1.2.6-.1.4.1.9.6 1.1z"/><path d="m230.6 281.3c-.6.3-1.1.5-1.7.8-.5.2-.7.8-.5 1.2.2.3.5.5.9.5.1 0 .3 0 .4-.1.6-.3 1.1-.5 1.7-.8.5-.2.7-.8.4-1.3-.2-.3-.7-.5-1.2-.3z"/><path d="m298.2 203.6c-.5-.2-1 .1-1.2.6-.2.6-.4 1.2-.6 1.8-.2.5.1 1 .6 1.2h.3c.4 0 .8-.3.9-.7.2-.6.4-1.2.6-1.8.1-.4-.1-.9-.6-1.1z"/><path d="m293 217.8c-.5-.2-1 0-1.2.5-.3.6-.5 1.1-.8 1.7-.2.5 0 1 .5 1.2.1.1.3.1.4.1.4 0 .7-.2.9-.5.3-.6.5-1.2.8-1.7.1-.5-.1-1.1-.6-1.3z"/><path d="m209.4 45.7c.6.2 1.2.3 1.8.5h.3c.4 0 .8-.3.9-.7.1-.5-.1-1-.6-1.2-.6-.2-1.2-.3-1.8-.5-.5-.1-1 .2-1.2.7-.2.6.1 1.1.6 1.2z"/><path d="m243.7 274.1c-.5.3-1.1.7-1.6 1-.4.3-.6.9-.3 1.3.2.3.5.4.8.4.2 0 .3 0 .5-.1.5-.3 1.1-.7 1.6-1 .4-.3.6-.9.3-1.3-.3-.5-.9-.6-1.3-.3z"/><path d="m255.8 265.4c-.5.4-1 .8-1.5 1.2-.4.3-.5.9-.2 1.3.2.2.5.4.7.4s.4-.1.6-.2c.5-.4 1-.8 1.5-1.2.4-.3.5-.9.1-1.3-.2-.5-.8-.6-1.2-.2z"/><path d="m249.8 269.9c-.5.4-1 .7-1.5 1.1-.4.3-.5.9-.2 1.3.2.3.5.4.8.4.2 0 .4-.1.5-.2.5-.4 1-.7 1.5-1.1.4-.3.5-.9.2-1.3s-.8-.5-1.3-.2z"/><path d="m237.2 277.9c-.5.3-1.1.6-1.6.9-.5.2-.6.8-.4 1.3.2.3.5.5.8.5.2 0 .3 0 .4-.1.6-.3 1.1-.6 1.7-.9.5-.3.6-.8.4-1.3s-.8-.7-1.3-.4z"/><path d="m295.8 210.8c-.5-.2-1 .1-1.2.6-.2.6-.4 1.2-.7 1.8-.2.5.1 1 .5 1.2.1 0 .2.1.3.1.4 0 .7-.2.9-.6.2-.6.5-1.2.7-1.8s0-1.1-.5-1.3z"/><path d="m223.8 284.3c-.6.2-1.2.5-1.7.7s-.7.7-.5 1.2c.1.4.5.6.9.6.1 0 .2 0 .3-.1.6-.2 1.2-.5 1.8-.7.5-.2.7-.7.5-1.2-.3-.5-.8-.7-1.3-.5z"/><path d="m271.8 249.8c-.4.5-.8.9-1.2 1.4-.3.4-.3 1 .1 1.3.2.2.4.2.6.2.3 0 .5-.1.7-.3.4-.5.8-.9 1.3-1.4.3-.4.3-1-.1-1.3s-1-.3-1.4.1z"/><path d="m121.6 53.8c.1 0 .3 0 .4-.1.6-.3 1.1-.5 1.7-.8.5-.2.7-.8.5-1.2-.2-.5-.8-.7-1.2-.5-.6.3-1.1.5-1.7.8-.5.2-.7.8-.4 1.3 0 .3.3.5.7.5z"/><path d="m142.7 45.9h.2c.6-.2 1.2-.3 1.8-.5.5-.1.8-.6.7-1.1s-.6-.8-1.1-.7c-.6.2-1.2.3-1.8.5-.5.1-.8.7-.7 1.2.1.3.5.6.9.6z"/><path d="m150 44.1h.2c.6-.1 1.2-.3 1.8-.4.5-.1.8-.6.7-1.1s-.6-.8-1.1-.7c-.6.1-1.2.2-1.9.4-.5.1-.8.6-.7 1.1.2.4.6.7 1 .7z"/><path d="m128.4 50.7c.1 0 .2 0 .4-.1.6-.2 1.2-.5 1.7-.7s.7-.7.5-1.2-.7-.7-1.2-.5c-.6.2-1.2.5-1.8.7-.5.2-.7.7-.5 1.2.2.4.6.6.9.6z"/><path d="m135.5 48.1h.3c.6-.2 1.2-.4 1.8-.6.5-.2.8-.7.6-1.2s-.7-.8-1.2-.6c-.6.2-1.2.4-1.8.6-.5.2-.8.7-.6 1.2.1.3.5.6.9.6z"/><path d="m187.3 41.8c.6.1 1.2.1 1.9.2h.1c.5 0 .9-.4.9-.8.1-.5-.3-1-.8-1-.6-.1-1.3-.1-1.9-.2-.5 0-1 .3-1 .9-.1.4.3.9.8.9z"/><path d="m216.8 286.9c-.6.2-1.2.4-1.8.6-.5.2-.8.7-.6 1.2.1.4.5.7.9.7h.3l1.8-.6c.5-.2.8-.7.6-1.2-.2-.6-.7-.9-1.2-.7z"/><path d="m194.8 42.7 1.8.3h.2c.5 0 .9-.3.9-.8.1-.5-.3-1-.8-1.1-.6-.1-1.2-.2-1.9-.3-.5-.1-1 .3-1.1.8 0 .5.3 1 .9 1.1z"/><path d="m164.9 41.9c.7-.1 1.3-.1 1.9-.2.5 0 .9-.5.9-1s-.5-.9-1-.9c-.6 0-1.3.1-1.9.2-.5 0-.9.5-.9 1 .1.5.5.9 1 .9z"/><path d="m202.1 44c.6.1 1.2.3 1.8.4h.2c.4 0 .8-.3.9-.7.1-.5-.2-1-.7-1.1-.6-.1-1.2-.3-1.9-.4-.5-.1-1 .2-1.1.7 0 .5.3 1 .8 1.1z"/><path d="m179.9 41.4c.6 0 1.2 0 1.9.1.5 0 .9-.4.9-.9s-.4-1-.9-1c-.6 0-1.3 0-1.9-.1-.5.1-1 .4-1 .9.1.6.5 1 1 1z"/><path d="m172.4 41.4h1.9c.5 0 .9-.4.9-1 0-.5-.4-1-1-.9h-1.9c-.5 0-.9.4-.9 1 .1.5.5.9 1 .9z"/><path d="m157.4 42.8h.1c.6-.1 1.2-.2 1.9-.3.5-.1.9-.5.8-1.1-.1-.5-.5-.9-1.1-.8s-1.3.2-1.9.3c-.5.1-.9.6-.8 1.1.1.4.5.8 1 .8z"/><path d="m295.1 125c.1.4.5.6.9.6.1 0 .2 0 .3-.1.5-.2.7-.7.6-1.2-.2-.6-.4-1.2-.7-1.8-.2-.5-.7-.7-1.2-.5s-.7.7-.5 1.2c.2.7.4 1.2.6 1.8z"/><path d="m288.1 228c.1.1.3.1.4.1.3 0 .7-.2.8-.5.3-.6.6-1.1.9-1.7.2-.5.1-1-.4-1.3-.5-.2-1-.1-1.3.4-.3.6-.6 1.1-.9 1.7-.2.5 0 1 .5 1.3z"/><path d="m292.4 118.1c.2.4.5.6.9.6.1 0 .2 0 .4-.1.5-.2.7-.8.5-1.2-.2-.6-.5-1.2-.8-1.7-.2-.5-.8-.7-1.2-.5-.5.2-.7.8-.5 1.2.2.5.5 1.1.7 1.7z"/><path d="m289.3 111.3c.2.3.5.5.8.5.1 0 .3 0 .4-.1.5-.2.7-.8.4-1.3-.3-.6-.6-1.1-.9-1.7-.2-.5-.8-.6-1.3-.4s-.6.8-.4 1.3c.4.6.7 1.2 1 1.7z"/><path d="m285.8 104.7c.2.3.5.5.8.5.2 0 .3 0 .5-.1.5-.3.6-.8.3-1.3s-.6-1.1-1-1.6c-.3-.5-.8-.6-1.3-.3-.4.3-.6.8-.3 1.3s.7 1 1 1.5z"/><path d="m281.9 98.4c.2.3.5.4.8.4.2 0 .4 0 .5-.2.4-.3.6-.9.3-1.3-.3-.5-.7-1-1-1.6-.3-.4-.9-.5-1.3-.3-.4.3-.5.9-.3 1.3.3.7.6 1.2 1 1.7z"/><path d="m303.4 166.2c-.5 0-.9.4-.9.9v2.2c0 .5.4.9.9 1 .5 0 .9-.4.9-.9v-2.2c0-.6-.4-1-.9-1z"/><path d="m302.2 159.7c0 .6.1 1.2.1 1.9 0 .5.4.9.9.9s.9-.5.9-1c0-.6-.1-1.3-.1-1.9 0-.5-.4-.9-1-.9-.4 0-.8.5-.8 1z"/><path d="m303.2 174c-.5-.1-1 .4-1 .9 0 .6-.1 1.2-.1 1.9 0 .5.4 1 .9 1h.1c.5 0 .9-.4.9-.9 0-.6.1-1.3.1-1.9 0-.5-.4-.9-.9-1z"/><path d="m302.6 181.5c-.5-.1-1 .3-1 .8-.1.6-.2 1.2-.2 1.9-.1.5.3 1 .8 1.1h.1c.5 0 .9-.3.9-.8.1-.6.2-1.3.2-1.9.1-.5-.3-1-.8-1.1z"/><path d="m301.5 152.2c.1.6.1 1.2.2 1.9.1.5.5.8.9.8h.1c.5-.1.9-.5.8-1-.1-.6-.1-1.3-.2-1.9-.1-.5-.6-.9-1-.8-.5.1-.8.5-.8 1z"/><path d="m298.9 137.5c.1.6.3 1.2.4 1.8.1.4.5.7.9.7h.2c.5-.1.8-.6.7-1.1-.1-.6-.3-1.2-.4-1.8-.1-.5-.6-.8-1.1-.7s-.9.6-.7 1.1z"/><path d="m300.4 144.9c.1.6.2 1.2.3 1.8.1.5.5.8.9.8h.2c.5-.1.9-.6.8-1.1-.1-.6-.2-1.2-.3-1.9-.1-.5-.6-.8-1.1-.8-.5.2-.9.6-.8 1.2z"/><path d="m273 86.4c.2.2.5.3.7.3s.4-.1.6-.2c.4-.3.5-.9.1-1.3-.4-.5-.8-1-1.2-1.4-.3-.4-.9-.4-1.3-.1s-.4.9-.1 1.3c.4.5.8.9 1.2 1.4z"/><path d="m243.5 60.7c.5.3 1.1.7 1.6 1 .2.1.3.2.5.2.3 0 .6-.2.8-.4.3-.4.2-1-.3-1.3s-1.1-.7-1.6-1c-.4-.3-1-.1-1.3.3s-.1.9.3 1.2z"/><path d="m230.4 53.5c.6.3 1.1.5 1.7.8.1.1.3.1.4.1.3 0 .7-.2.8-.5.2-.5 0-1-.4-1.3-.6-.3-1.1-.6-1.7-.8-.5-.2-1 0-1.3.4-.2.5 0 1.1.5 1.3z"/><path d="m237.1 56.9c.5.3 1.1.6 1.6.9.1.1.3.1.5.1.3 0 .6-.2.8-.5.3-.5.1-1-.4-1.3s-1.1-.6-1.7-.9c-.5-.2-1-.1-1.3.4-.1.5 0 1.1.5 1.3z"/><path d="m277.6 92.3c.2.2.5.4.8.4.2 0 .4-.1.6-.2.4-.3.5-.9.2-1.3-.4-.5-.8-1-1.1-1.5-.3-.4-.9-.5-1.3-.2s-.5.9-.2 1.3c.2.5.6 1 1 1.5z"/><path d="m261.4 260.5c-.5.4-.9.8-1.4 1.3-.4.3-.4.9-.1 1.3.2.2.4.3.7.3.2 0 .4-.1.6-.2.5-.4.9-.8 1.4-1.3.4-.3.4-.9.1-1.3s-.9-.5-1.3-.1z"/><path d="m301.6 189c-.5-.1-1 .2-1.1.8s-.2 1.2-.3 1.8c-.1.5.2 1 .7 1.1h.2c.4 0 .8-.3.9-.8.1-.6.2-1.2.3-1.9.1-.4-.2-.9-.7-1z"/><path d="m223.6 50.5c.6.2 1.2.5 1.7.7.1.1.2.1.4.1.4 0 .7-.2.9-.6.2-.5 0-1-.5-1.2-.6-.2-1.2-.5-1.8-.7-.5-.2-1 0-1.2.5-.3.5 0 1 .5 1.2z"/><path d="m268 80.8c.2.2.4.3.7.3.2 0 .5-.1.6-.3.4-.4.4-1 0-1.3-.4-.5-.9-.9-1.3-1.4-.4-.4-1-.4-1.3 0-.4.4-.4 1 0 1.3.4.5.9 1 1.3 1.4z"/><path d="m300.1 196.4c-.5-.1-1 .2-1.1.7-.1.6-.3 1.2-.5 1.8-.1.5.2 1 .7 1.1h.2c.4 0 .8-.3.9-.7.2-.6.3-1.2.5-1.8.1-.5-.2-1-.7-1.1z"/><path d="m262.7 75.6c.2.2.4.3.6.3s.5-.1.7-.3c.4-.4.3-1 0-1.3-.5-.4-.9-.9-1.4-1.3-.4-.4-1-.3-1.3.1-.4.4-.3 1 .1 1.3s.8.7 1.3 1.2z"/><path d="m251.2 66c.2.1.4.2.6.2.3 0 .6-.1.8-.4.3-.4.2-1-.2-1.3-.5-.4-1-.7-1.5-1.1-.4-.3-1-.2-1.3.2s-.2 1 .2 1.3c.4.4.9.7 1.4 1.1z"/><path d="m257.1 70.6c.2.1.4.2.6.2.3 0 .5-.1.7-.3.3-.4.3-1-.1-1.3-.5-.4-1-.8-1.5-1.2-.4-.3-1-.3-1.3.1s-.3 1 .1 1.3c.5.4 1 .8 1.5 1.2z"/><path d="m296.9 130.3c.2.6.4 1.2.5 1.8.1.4.5.7.9.7h.3c.5-.1.8-.7.6-1.2-.2-.6-.4-1.2-.5-1.8-.2-.5-.7-.8-1.2-.6-.5.1-.8.6-.6 1.1z"/><path d="m70.8 236.4c-.3-.4-.9-.6-1.3-.3s-.6.9-.3 1.3c.3.5.7 1.1 1 1.6.2.3.5.4.8.4.2 0 .4-.1.5-.2.4-.3.5-.9.3-1.3-.3-.5-.7-1-1-1.5z"/><path d="m75 242.5c-.3-.4-.9-.5-1.3-.2s-.5.9-.2 1.3c.4.5.8 1 1.1 1.5.2.2.5.4.7.4s.4-.1.6-.2c.4-.3.5-.9.2-1.3-.3-.5-.7-1-1.1-1.5z"/><path d="m95.5 264.2c-.4-.3-1-.3-1.3.1s-.3 1 .1 1.3c.5.4 1 .8 1.5 1.2.2.1.4.2.6.2.3 0 .5-.1.7-.3.3-.4.3-1-.1-1.3-.5-.4-1-.8-1.5-1.2z"/><path d="m64.6 107c-.5-.2-1-.1-1.3.4-.3.6-.6 1.1-.9 1.7-.2.5-.1 1 .4 1.3.1.1.3.1.4.1.3 0 .7-.2.8-.5.3-.6.6-1.1.9-1.7.3-.5.1-1-.3-1.3z"/><path d="m89.9 259.2c-.4-.4-1-.3-1.3 0-.4.4-.3 1 0 1.3.5.4.9.9 1.4 1.3.2.2.4.2.6.2.3 0 .5-.1.7-.3.4-.4.3-1-.1-1.3s-.8-.8-1.3-1.2z"/><path d="m79.7 248.4c-.3-.4-.9-.5-1.3-.1-.4.3-.5.9-.1 1.3.4.5.8 1 1.2 1.4.2.2.4.3.7.3.2 0 .4-.1.6-.2.4-.3.4-.9.1-1.3-.4-.5-.8-1-1.2-1.4z"/><path d="m63.4 223.4c-.2-.5-.8-.7-1.3-.4-.5.2-.7.8-.4 1.3.3.6.6 1.1.9 1.7.2.3.5.5.8.5.1 0 .3 0 .4-.1.5-.2.6-.8.4-1.3-.3-.6-.6-1.1-.8-1.7z"/><path d="m84.6 253.9c-.4-.4-1-.4-1.3 0-.4.4-.4 1 0 1.3.4.5.9.9 1.3 1.4.2.2.4.3.7.3.2 0 .5-.1.7-.3.4-.4.4-1 0-1.3-.5-.5-1-.9-1.4-1.4z"/><path d="m66.9 230c-.3-.5-.8-.6-1.3-.3s-.6.8-.3 1.3.6 1.1 1 1.6c.2.3.5.5.8.5.2 0 .3 0 .5-.1.4-.3.6-.8.3-1.3-.4-.6-.7-1.2-1-1.7z"/><path d="m50.3 183.5c.5-.1.9-.5.8-1-.1-.6-.1-1.2-.2-1.9-.1-.5-.5-.9-1-.8s-.9.5-.8 1c.1.6.1 1.3.2 1.9.1.5.5.8.9.8.1.1.1 0 .1 0z"/><path d="m52.3 189.9c-.1-.6-.2-1.2-.3-1.8-.1-.5-.6-.9-1.1-.8s-.9.6-.8 1.1c.1.6.2 1.2.3 1.9.1.5.5.8.9.8h.2c.5-.2.9-.7.8-1.2z"/><path d="m49.6 176.1c.5 0 .9-.5.9-1 0-.6-.1-1.2-.1-1.9 0-.5-.4-1-1-.9-.5 0-.9.5-.9 1 0 .6.1 1.3.1 1.9.1.5.5.9 1 .9z"/><path d="m55.8 204.4c-.2-.6-.4-1.2-.5-1.8-.1-.5-.7-.8-1.2-.6-.5.1-.8.7-.6 1.2.2.6.4 1.2.5 1.8.1.4.5.7.9.7h.3c.4-.3.7-.8.6-1.3z"/><path d="m57.5 209.7c-.2-.5-.7-.8-1.2-.6s-.7.7-.6 1.2c.2.6.4 1.2.6 1.8.1.4.5.6.9.6.1 0 .2 0 .3-.1.5-.2.7-.7.6-1.2s-.4-1.1-.6-1.7z"/><path d="m60.2 216.7c-.2-.5-.8-.7-1.2-.5-.5.2-.7.8-.5 1.2.2.6.5 1.2.7 1.7.2.4.5.6.9.6.1 0 .3 0 .4-.1.5-.2.7-.8.5-1.2-.3-.6-.5-1.2-.8-1.7z"/><path d="m53.8 197.2c-.1-.6-.3-1.2-.4-1.8-.1-.5-.6-.8-1.1-.7s-.8.6-.7 1.1c.1.6.3 1.2.4 1.8.1.4.5.7.9.7h.2c.5-.1.8-.6.7-1.1z"/><path d="m122.2 281.3c-.6-.3-1.1-.5-1.7-.8-.5-.2-1 0-1.3.4-.2.5 0 1 .4 1.3.6.3 1.1.6 1.7.8.1.1.3.1.4.1.4 0 .7-.2.8-.5.3-.5.1-1.1-.3-1.3z"/><path d="m157.8 292.2c-.6-.1-1.2-.2-1.8-.3-.5-.1-1 .3-1.1.8s.3 1 .8 1.1c.6.1 1.2.2 1.9.3h.1c.5 0 .9-.3.9-.8.1-.6-.3-1.1-.8-1.1z"/><path d="m165.2 293c-.6-.1-1.2-.1-1.9-.2-.5-.1-1 .3-1 .8-.1.5.3 1 .8 1 .6.1 1.3.1 1.9.2h.1c.5 0 .9-.4.9-.9.1-.4-.3-.8-.8-.9z"/><path d="m150.5 290.9c-.6-.1-1.2-.3-1.8-.4-.5-.1-1 .2-1.1.7s.2 1 .7 1.1c.6.1 1.2.3 1.9.4h.2c.4 0 .8-.3.9-.7 0-.5-.3-1-.8-1.1z"/><path d="m172.7 293.5c-.6 0-1.2 0-1.9-.1-.5 0-1 .4-1 .9s.4 1 .9 1c.6 0 1.3 0 1.9.1.5 0 .9-.4.9-.9.1-.6-.3-1-.8-1z"/><path d="m143.2 289.1c-.6-.2-1.2-.3-1.8-.5-.5-.1-1 .1-1.2.6-.1.5.1 1 .6 1.2.6.2 1.2.3 1.8.5h.2c.4 0 .8-.3.9-.7.3-.4 0-.9-.5-1.1z"/><path d="m180.2 293.5h-1.9c-.5 0-.9.4-.9 1 0 .5.4.9.9.9h1.9c.5 0 .9-.4.9-1s-.4-.9-.9-.9z"/><path d="m195 292.2c-.6.1-1.2.2-1.8.3-.5.1-.9.5-.8 1.1.1.5.5.8.9.8h.1c.6-.1 1.3-.2 1.9-.3.5-.1.9-.6.8-1.1-.1-.6-.6-.9-1.1-.8z"/><path d="m136 286.9c-.6-.2-1.2-.4-1.8-.6-.5-.2-1 .1-1.2.6s.1 1 .6 1.2l1.8.6h.3c.4 0 .8-.2.9-.6.2-.5-.1-1-.6-1.2z"/><path d="m109.1 274.1c-.5-.3-1.1-.7-1.6-1-.4-.3-1-.2-1.3.3-.3.4-.2 1 .3 1.3s1.1.7 1.6 1c.2.1.3.1.5.1.3 0 .6-.2.8-.4.2-.5.1-1-.3-1.3z"/><path d="m115.5 277.9c-.5-.3-1.1-.6-1.6-.9s-1-.1-1.3.4-.1 1 .4 1.3 1.1.6 1.7.9c.1.1.3.1.5.1.3 0 .7-.2.8-.5.1-.5 0-1.1-.5-1.3z"/><path d="m266.8 255.3c-.4.4-.9.9-1.3 1.3s-.4 1 0 1.3c.2.2.4.3.7.3.2 0 .5-.1.7-.3.4-.4.9-.9 1.3-1.3s.4-1 0-1.3c-.5-.4-1.1-.4-1.4 0z"/><path d="m129 284.3c-.6-.2-1.2-.5-1.7-.7s-1 0-1.2.5 0 1 .5 1.2c.6.2 1.2.5 1.8.7.1 0 .2.1.4.1.4 0 .7-.2.9-.6 0-.4-.2-1-.7-1.2z"/><path d="m101.4 268.8c-.4-.3-1-.2-1.3.2s-.2 1 .2 1.3c.5.4 1 .7 1.5 1.1.2.1.4.2.5.2.3 0 .6-.1.8-.4.3-.4.2-1-.2-1.3-.5-.4-1-.7-1.5-1.1z"/><path d="m202.4 290.8c-.6.1-1.2.3-1.8.4-.5.1-.8.6-.7 1.1.1.4.5.8.9.8h.2c.6-.1 1.2-.2 1.9-.4.5-.1.8-.6.7-1.1-.2-.5-.7-.9-1.2-.8z"/><path d="m49.3 168.5c.5 0 .9-.5.9-1v-1.7c0-.5-.4-.9-.9-1-.5 0-.9.4-.9.9v1.8l.9.1h-.9c0 .5.4.9.9.9z"/><path d="m52.6 138.7h.2c.4 0 .8-.3.9-.7.1-.6.3-1.2.4-1.8.1-.5-.2-1-.7-1.1s-1 .2-1.1.7c-.2.6-.3 1.2-.5 1.8 0 .4.3.9.8 1.1z"/><path d="m75.3 91.4c.3 0 .6-.1.7-.4.4-.5.8-1 1.1-1.5.3-.4.3-1-.2-1.3-.4-.3-1-.3-1.3.2-.4.5-.8 1-1.2 1.5-.3.4-.2 1 .2 1.3.3.1.5.2.7.2z"/><path d="m59.7 117.2c.1.1.3.1.4.1.4 0 .7-.2.9-.6.3-.6.5-1.1.8-1.7.2-.5 0-1-.5-1.2s-1 0-1.2.5c-.3.6-.5 1.2-.8 1.7-.3.4-.1 1 .4 1.2z"/><path d="m80.1 85.5c.3 0 .5-.1.7-.3.4-.5.8-.9 1.2-1.4.3-.4.3-1-.1-1.3s-1-.3-1.3.1c-.4.5-.8.9-1.3 1.4-.3.4-.3 1 .1 1.3.2.2.5.2.7.2z"/><path d="m66.4 103.7c.2.1.3.1.5.1.3 0 .6-.2.8-.5.3-.5.6-1.1 1-1.6.3-.4.1-1-.3-1.3s-1-.1-1.3.3c-.3.5-.7 1.1-1 1.6-.3.6-.1 1.2.3 1.4z"/><path d="m187.6 293c-.6.1-1.2.1-1.9.2-.5 0-.9.5-.9 1s.5.9.9.9h.1c.6 0 1.3-.1 1.9-.2.5 0 .9-.5.9-1s-.5-.9-1-.9z"/><path d="m85.1 80c.2 0 .5-.1.7-.3l1.3-1.3c.4-.4.4-1 0-1.3-.4-.4-1-.4-1.3 0-.4.4-.9.9-1.3 1.3s-.4 1 0 1.3c.2.2.4.3.6.3z"/><path d="m70.9 97.5c.3 0 .6-.1.8-.4.3-.5.7-1 1.1-1.5.3-.4.2-1-.2-1.3s-1-.2-1.3.2c-.4.5-.7 1-1.1 1.6-.3.4-.2 1 .3 1.3.1 0 .3.1.4.1z"/><path d="m209.6 289.1c-.6.2-1.2.3-1.8.5-.5.1-.8.6-.7 1.1.1.4.5.7.9.7h.2c.6-.2 1.2-.3 1.8-.5.5-.1.8-.7.7-1.2 0-.5-.5-.8-1.1-.6z"/><path d="m108.4 61c.2 0 .3 0 .5-.1.5-.3 1.1-.7 1.6-1 .4-.3.6-.9.3-1.3s-.9-.6-1.3-.3c-.5.3-1.1.7-1.6 1-.4.3-.6.9-.3 1.3.2.3.5.4.8.4z"/><path d="m102.2 65.2c.2 0 .4-.1.5-.2.5-.4 1-.7 1.5-1.1.4-.3.5-.9.2-1.3s-.9-.5-1.3-.2c-.5.4-1 .7-1.5 1.1-.4.3-.5.9-.2 1.3.2.3.5.4.8.4z"/><path d="m90.5 74.7c.2 0 .5-.1.6-.2.5-.4.9-.8 1.4-1.2.4-.3.4-.9.1-1.3s-.9-.4-1.3-.1c-.5.4-.9.8-1.4 1.3-.4.4-.4.9-.1 1.3.2.1.5.2.7.2z"/><path d="m96.2 69.8c.2 0 .4-.1.6-.2l1.5-1.2c.4-.3.5-.9.2-1.3s-.9-.5-1.3-.2c-.5.4-1 .8-1.5 1.2-.4.3-.5.9-.1 1.3.1.3.4.4.6.4z"/><path d="m51.1 146h.2c.4 0 .8-.3.9-.8.1-.6.2-1.2.3-1.8.1-.5-.2-1-.7-1.1s-1 .2-1.1.7c-.1.6-.2 1.2-.3 1.9-.1.6.2 1.1.7 1.1z"/><path d="m54.5 131.4h.3c.4 0 .8-.3.9-.7.2-.6.4-1.2.6-1.8.2-.5-.1-1-.6-1.2s-1 .1-1.2.6c-.2.6-.4 1.2-.6 1.8s.1 1.1.6 1.3z"/><path d="m49.5 161c.6 0 1-.4 1-.9 0-.6.1-1.2.1-1.9 0-.5-.4-1-.9-1s-1 .4-1 .9c0 .6-.1 1.3-.1 1.9 0 .5.4 1 .9 1z"/><path d="m50.1 153.5h.1c.5 0 .9-.4.9-.8.1-.6.2-1.2.2-1.9.1-.5-.3-1-.8-1.1s-1 .3-1.1.8c-.1.6-.2 1.3-.2 1.9s.4 1 .9 1.1z"/><path d="m114.9 57.2c.2 0 .3 0 .5-.1.5-.3 1.1-.6 1.6-.9.5-.2.6-.8.4-1.3s-.8-.6-1.3-.4c-.6.3-1.1.6-1.7.9-.5.3-.6.8-.4 1.3.2.3.6.5.9.5z"/><path d="m56.9 124.2c.1 0 .2.1.3.1.4 0 .7-.2.9-.6.2-.6.4-1.2.7-1.8.2-.5-.1-1-.5-1.2-.5-.2-1 0-1.2.5-.2.6-.5 1.2-.7 1.8-.3.5 0 1 .5 1.2z"/><path d="m103.9 112.1-7.8-6.8 11 3.2 1.2-1.4-4.6-10.6 7.8 6.9 2.5-2.9-13.8-12.1-2.6 3 5.5 12.4-13-3.8-2.6 2.9 13.9 12.1z"/><path d="m108.3 86.9c.1 1.7.8 3.3 1.9 4.8s2.4 2.6 4 3.3c1.5.7 3.2.9 4.9.7s3.3-.9 4.8-1.9c1.5-1.1 2.6-2.4 3.4-3.9.7-1.5 1-3.1.9-4.8s-.8-3.3-1.9-4.8-2.4-2.6-4-3.3c-1.5-.7-3.2-.9-4.8-.7-1.7.2-3.3.8-4.8 1.9s-2.6 2.4-3.4 3.9c-.9 1.5-1.2 3.1-1 4.8zm4.5-3.4c.4-.9 1.1-1.7 2-2.3s1.8-1 2.8-1.1 1.9 0 2.9.5c.9.4 1.7 1.1 2.4 2.1s1.1 2 1.2 3-.1 2-.5 2.9-1.1 1.7-1.9 2.3c-.9.6-1.8 1-2.8 1.1s-2 0-2.9-.5c-.9-.4-1.7-1.1-2.4-2.1s-1.1-1.9-1.2-3c-.2-1-.1-2 .4-2.9z"/><path d="m137 85.4-4.7-10.9 11.8 7.8 3.5-1.5-7.3-16.9-3.7 1.6 4.8 10.9-11.8-7.9-3.6 1.6 7.3 16.9z"/><path d="m149.9 75.7c1.1 1.3 2.5 2.1 4.1 2.6s3.3.6 5.2.2c1.8-.4 3.4-1.1 4.7-2.1 1.3-1.1 2.2-2.4 2.8-4s.7-3.3.3-5.1-1.1-3.4-2.2-4.7-2.5-2.2-4.1-2.7-3.3-.6-5.1-.2-3.4 1.1-4.7 2.1c-1.3 1.1-2.3 2.4-2.8 4-.6 1.6-.7 3.3-.3 5.2.2 1.8.9 3.4 2.1 4.7zm1.9-8.7c.3-1 .9-1.8 1.6-2.4.8-.6 1.7-1.1 2.7-1.3 1.1-.2 2.1-.2 3 .2.9.3 1.7.9 2.4 1.6.7.8 1.1 1.7 1.3 2.9s.2 2.2-.2 3.2c-.3 1-.9 1.8-1.6 2.4-.8.6-1.7 1.1-2.7 1.3-1.1.2-2.1.2-3-.2s-1.8-.8-2.4-1.6c-.7-.8-1.1-1.7-1.3-2.9-.2-1.1-.1-2.2.2-3.2z"/><path d="m174.9 75.7c1.5.8 3.2 1.3 5.2 1.3 2.8.1 5.1-.5 6.9-1.6l.2-8.9-6.8-.2-.1 2.9 3 .1-.1 3.6c-.8.4-1.8.5-2.9.5-1.2 0-2.2-.3-3.1-.8s-1.6-1.2-2.1-2.1-.7-2-.7-3.2.3-2.2.9-3.1 1.3-1.6 2.3-2c1-.5 2-.7 3.2-.6 1.3 0 2.4.2 3.4.5s1.9.8 2.6 1.5l.1-3.8c-.8-.6-1.8-1.1-2.8-1.4s-2.2-.5-3.5-.5c-2 0-3.7.3-5.2 1s-2.7 1.8-3.6 3.3c-.9 1.4-1.3 3.1-1.4 5.1 0 2 .3 3.7 1.1 5.1.8 1.3 1.9 2.4 3.4 3.3z"/><path d="m192.9 78 1.3-6.1 3.1.7 1.8 6.8 4 .9-2-7.3c1.2-.2 2.2-.7 3.1-1.5.8-.8 1.4-1.9 1.7-3.2.4-1.9.2-3.5-.7-4.8s-2.4-2.1-4.4-2.6l-7.8-1.7-3.9 18zm3.2-14.7 3.2.7c1 .2 1.8.6 2.2 1.1s.6 1.3.4 2.3c-.2.9-.6 1.5-1.3 1.8s-1.5.3-2.5.1l-3.2-.7z"/><path d="m203.7 80.2 3.8 1.6 3-3.1 6.7 2.9-.1 4.3 3.8 1.6.5-19.8-3.6-1.5zm13.8-1.9-4.8-2.1 5.2-5.4z"/><path d="m231.2 82-2.2 11.3 1.5 1.1 10.1-5.6-6.2 8.4 3.1 2.3 10.8-14.9-3.1-2.3-11.9 6.6 2.7-13.3-3.2-2.3-10.8 14.9 3.1 2.2z"/><path d="m256.1 92-2.7-2.7-4.9 2.5 2.4 2.4z"/><path d="m244.7 106c.2.8.5 1.7 1 2.7s1.1 1.9 1.8 2.8c1.5 1.9 2.9 3 4.4 3.4s2.9.1 4.2-1c.8-.6 1.3-1.2 1.6-1.9s.5-1.4.4-2.3c0-.9-.2-1.9-.6-3.2-.3-1.1-.5-1.9-.6-2.4s-.1-1-.1-1.4c.1-.4.3-.7.7-1 .5-.4 1.1-.5 1.7-.2.6.2 1.2.7 1.8 1.5.9 1.2 1.6 2.7 1.9 4.4l2.7-2.1c-.2-.9-.5-1.7-.9-2.5s-.9-1.6-1.6-2.4c-.8-1.1-1.7-1.9-2.7-2.4s-1.9-.8-2.9-.7c-1 0-1.9.4-2.7 1-1 .8-1.6 1.8-1.8 2.9s-.1 2.6.4 4.4c.3 1.1.5 1.9.6 2.4.1.6.1 1 0 1.4s-.3.7-.7 1c-.5.4-1 .5-1.7.3-.6-.2-1.2-.7-1.8-1.5-.6-.7-1.1-1.5-1.5-2.5-.4-.9-.8-1.9-1-2.9z"/><path d="m79.1 142.5c.2 0 .3.1.5.1.8 0 1.6-.5 1.8-1.4 2.1-7.7 5.2-15.1 9.1-22.1.5-.9.2-2.1-.7-2.6s-2.1-.2-2.6.7c-4.1 7.2-7.3 14.9-9.5 22.9-.2 1.1.3 2.1 1.4 2.4z"/><path d="m81.5 194.1c-.3-1-1.3-1.6-2.3-1.3s-1.6 1.3-1.3 2.3c2.7 9.7 6.9 19 12.3 27.5.4.6 1 .9 1.6.9.3 0 .7-.1 1-.3.9-.6 1.1-1.7.6-2.6-5.3-8.2-9.3-17.1-11.9-26.5z"/><path d="m273.7 192.4c-1-.3-2 .3-2.3 1.3-2.6 9.5-6.7 18.5-12 26.9-.6.9-.3 2 .6 2.6.3.2.7.3 1 .3.6 0 1.2-.3 1.6-.9 5.5-8.6 9.7-18 12.5-27.9.2-1-.4-2-1.4-2.3z"/><path d="m262.9 116.5c-.9.5-1.2 1.7-.7 2.6 3.9 7 7 14.4 9.2 22.1.2.8 1 1.4 1.8 1.4.2 0 .3 0 .5-.1 1-.3 1.6-1.3 1.3-2.3-2.2-8-5.4-15.7-9.5-23-.5-.9-1.7-1.2-2.6-.7z"/><path d="m140.3 123c.4-.7.6-1.5.6-2.3 0-1.7-.5-3-1.5-3.9s-2.4-1.3-4.2-1.3h-9.3v19h9.8c1.1 0 2.1-.2 3-.7.9-.4 1.6-1.1 2.1-1.9s.8-1.8.8-3c0-1.1-.2-2-.7-2.7s-1.2-1.2-2.1-1.6c.5-.4 1.1-.9 1.5-1.6zm-10.4-4.3h4.3c.8 0 1.5.2 1.9.5s.6.9.6 1.8c0 .8-.2 1.4-.6 1.7-.4.4-1 .5-1.7.5h-4.4v-4.5zm6.7 12.1c-.5.4-1.1.5-2 .5h-4.6v-4.9h4.5c.9 0 1.7.2 2.1.6.5.4.7 1.1.7 2 0 .8-.2 1.4-.7 1.8z"/><path d="m145.8 134.5h13.2v-3.5h-9.1v-4.3h6.7v-3.4h-6.7v-4.3h9.1v-3.5h-13.2z"/><path d="m185.2 134.5v-15.5h5.6v-3.5h-28.8v3.5h5.5v15.5h4.2v-15.5h9.4v15.5z"/><path d="m207.8 119v-3.5h-13.2v19h13.2v-3.5h-9.1v-4.3h6.7v-3.4h-6.7v-4.3z"/><path d="m225.9 125.4c.7-1 1-2.2 1-3.6 0-2-.6-3.6-1.8-4.7s-2.9-1.6-5-1.6h-8.2v19h4.1v-6.5h3.2l3.3 6.4h4.2l-3.6-6.9c1.2-.4 2.2-1.1 2.8-2.1zm-4.1-1.5c-.6.5-1.4.7-2.5.7h-3.3v-5.6h3.4c1.1 0 1.9.2 2.5.6s.9 1.2.9 2.2c-.1 1-.4 1.7-1 2.1z"/><path d="m93.4 180h-18.8v-9.1h13.8v-6.9h-13.8v-9.1h18.8v-7.2h-27.4v39.5h27.4z"/><path d="m113.8 147.7h-13.7v39.5h13.3c6.8 0 12.1-1.7 15.9-5.1s5.7-8.3 5.7-14.9c0-4-.9-7.5-2.6-10.4s-4.2-5.2-7.4-6.8c-3.2-1.5-6.9-2.3-11.2-2.3zm9.2 28.9c-2.1 2.3-5.2 3.4-9.3 3.4h-5.1v-25.1h5.7c2.4 0 4.6.5 6.4 1.6s3.2 2.5 4.1 4.4 1.4 4 1.4 6.4c.1 3.9-1 7.1-3.2 9.3z"/></g><path d="m142.3 147.7h8.6v39.5h-8.6z"/><path d="m157.2 154.9h11.6v32.3h8.5v-32.3h11.6v-7.2h-31.7z" fill-rule="nonzero"/><path d="m195.2 147.7h8.6v39.5h-8.6z"/><path d="m244.5 187.2v-39.5h-8.6v25.5l-16.4-25.5h-8.4v39.5h8.6v-25.5l16.5 25.5z" fill-rule="nonzero"/><path d="m260.8 149.4c-3.2 1.7-5.7 4.1-7.5 7.2s-2.7 6.7-2.7 10.9.9 7.8 2.7 10.9 4.3 5.5 7.5 7.1c3.2 1.7 7 2.5 11.2 2.5 6.1 0 11-1.3 14.7-3.8v-19h-14.7v6.3h6.4v7.6c-1.7.8-3.8 1.2-6.1 1.2-2.6 0-4.8-.5-6.8-1.6s-3.5-2.5-4.5-4.5c-1.1-1.9-1.6-4.2-1.6-6.8s.6-4.8 1.7-6.7c1.2-1.9 2.8-3.4 4.8-4.4s4.3-1.6 6.8-1.6c2.7 0 5.1.3 7.3.9 2.1.6 4 1.6 5.7 3v-8.2c-1.8-1.2-3.9-2.2-6.1-2.7-2.2-.6-4.7-.9-7.6-.9-4.2.1-7.9.9-11.2 2.6z" fill-rule="nonzero"/><path d="m135.4 217.6 20 10.2h.1c.1.1.3.1.4.2.1 0 .1 0 .2.1.2 0 .4.1.6.1h59.4c1.6 0 2.8-1.3 2.8-2.8v-20.5c0-1.6-1.3-2.8-2.8-2.8h-59.4c-.2 0-.4 0-.6.1h-.1c-.2 0-.4.1-.5.2h-.1l-20 10.2c-.9.5-1.5 1.5-1.5 2.5s.5 2 1.5 2.5zm74-10h3.8v14.8h-3.8zm-50 0h44.3v4.6h-44.3zm0 10.3h44.3v4.6h-44.3zm-8.6-6.9 3-1.5v11.2l-3-1.5zm-5.6 2.9v2.4l-2.3-1.2z" fill-rule="nonzero"/><path d="m107.6 236-2.4 1.7 1.8 2.5-2.9 2.1c-.8-.5-1.6-1.2-2.2-2.1-.7-1-1.2-2.1-1.4-3.1-.2-1.1 0-2.1.4-3 .4-1 1.1-1.8 2.1-2.5s2-1.1 3-1.1c1.1-.1 2.1.2 3.1.7s1.8 1.3 2.5 2.3c.8 1.1 1.4 2.1 1.7 3.1.4 1 .5 2 .5 3.1l3.1-2.2c-.1-1.1-.3-2.1-.7-3.2-.4-1-1-2.1-1.9-3.3-1.2-1.7-2.6-2.9-4.2-3.8-1.6-.8-3.2-1.2-4.9-1-1.7.1-3.3.8-4.9 1.9s-2.7 2.5-3.4 4-.8 3.2-.5 4.9c.3 1.8 1.1 3.5 2.3 5.2 1.8 2.4 3.7 4 5.7 4.8l7.2-5.2z" fill-rule="nonzero"/><path d="m114.2 258.3c2.2 1.8 4.3 2.6 6.3 2.5 2-.2 3.8-1.2 5.3-3l7-8.4-3.2-2.7-7.1 8.5c-.9 1-1.8 1.6-2.8 1.6s-2.1-.4-3.1-1.2c-1-.9-1.6-1.8-1.8-2.9-.1-1 .2-2.1 1.1-3.1l7.1-8.5-3.2-2.7-7 8.4c-1.5 1.8-2.2 3.8-2 5.8.1 2 1.3 3.9 3.4 5.7z" fill-rule="nonzero"/><path d="m137.6 251.8-15.6 12.5 3.8 2.1 3.4-2.7 6.8 3.7-.4 4.3 3.8 2 1.9-19.9zm-1.1 12.1-4.8-2.6 5.8-4.9z" fill-rule="nonzero"/><path d="m160.2 262.3c-.9-1.4-2.4-2.3-4.5-3l-8.1-2.4-5.2 17.7 4.1 1.2 1.8-6 3.2.9 1.5 7 4.2 1.2-1.6-7.5c1.3-.1 2.4-.5 3.3-1.2s1.6-1.7 2-3.1c.4-1.8.2-3.4-.7-4.8zm-3.6 3.7c-.3.9-.8 1.5-1.5 1.7s-1.6.2-2.6-.1l-3.3-1 1.6-5.3 3.3 1c1 .3 1.8.8 2.3 1.3s.5 1.4.2 2.4z" fill-rule="nonzero"/><path d="m174.2 262.5-4.1-.3-9.2 17.8 4.3.3 2-3.9 7.7.6 1.3 4.1 4.3.3zm-5.7 10.8 3.3-6.8 2.2 7.2z" fill-rule="nonzero"/><path d="m198.1 260.6-4.2.6 1.7 11.8-9.7-10.7-4.1.6 2.6 18.2 4.2-.6-1.7-11.7 9.7 10.6 4.1-.6z" fill-rule="nonzero"/><path d="m209.6 260 5.4-2-1.2-3.1-14.6 5.4 1.2 3.1 5.3-1.9 5.2 14.1 4-1.5z" fill-rule="nonzero"/><path d="m226.4 247.2-11.5 7 9.6 15.7 11.5-7-1.7-2.9-7.9 4.9-2.3-3.7 5.9-3.5-1.7-2.8-5.8 3.6-2.3-3.6 7.9-4.9z" fill-rule="nonzero"/><path d="m247.6 248.1-6.8 6.3-2.9-3.1 5-4.6-2.2-2.4-5 4.7-2.9-3.2 6.8-6.3-2.2-2.4-9.9 9.1 12.5 13.6 9.9-9.2z" fill-rule="nonzero"/><path d="m255.4 227.1c-1.5-1-3.1-1.6-4.7-1.6-1.6-.1-3.2.4-4.7 1.3s-2.8 2.2-4 4l-3.8 5.6 15.3 10.3 3.6-5.4c1.9-2.8 2.7-5.4 2.4-7.8-.1-2.6-1.5-4.7-4.1-6.4zm-.9 12-1.4 2.1-9.7-6.5 1.6-2.3c.7-1 1.5-1.7 2.4-2.2s1.8-.6 2.8-.5 1.9.5 2.9 1.1c1.5 1 2.5 2.3 2.7 3.8.3 1.3-.2 2.8-1.3 4.5z" fill-rule="nonzero"/></g></svg>