<?xml version="1.0" encoding="utf-8"?>
<!-- Generator: Adobe Illustrator 23.0.4, SVG Export Plug-In . SVG Version: 6.00 Build 0)  -->
<svg version="1.1" id="Layer_1" xmlns="http://www.w3.org/2000/svg" xmlns:xlink="http://www.w3.org/1999/xlink" x="0px" y="0px"
	 viewBox="0 0 140 48" style="enable-background:new 0 0 140 48;" xml:space="preserve">
<g>
	<path style="fill:#E7D6C4;" d="M1.7,34.7l-0.3,0.4C1,33.7,0.5,32.3,0,31c0.5-1.3,1-2.5,1.5-3.4c0.4,0.8,0.8,0.2,1-1.8
		c0.1-0.1,0.2-0.4,0.3-0.7c0.2-0.5,0.4-0.9,0.7-1.4c0.1,0,0.3,0.2,0.4,0.2c0.2,0,0.3-0.1,0.4-0.2c0.4-0.2,0.8-0.5,1.3-0.7
		c0.7-0.2,0.5-0.2,0.9,0.5c-0.1-0.3-0.3-0.6-0.4-0.9C5.7,22.8,5,23,4.8,23.4c-0.1,0.1-0.3,0.3-0.7,0.4c-0.3,0-0.4,0.1-0.5,0.2
		c-0.3,0-0.7,0.3-1.4,0.8l0.2-0.2c0-2-0.6-3.5-1.9-4.6c0.1-0.4,0.1-0.9,0.2-1.5C0.7,18,0.7,17.4,0.9,17C1,16.5,1,16,1.1,15.4
		c0.1-0.6,0.2-1.2,0.2-1.8c0.1-0.6,0.2-1.2,0.4-1.7c0,0,0.7-2.9,0.7-2.9c0.1-0.4,2.6-1.1,3-1.3C6.3,7.3,7,7,7.8,6.8
		c3-0.9,6.1-1.2,9.2-1.5c20.1-1.5,40.1-2.5,60.3-2.4C86,2.9,95.2,2.1,104,3c5.4,0.5,10.9,0.9,16.4,1.4c4.9,0.4,9.7,1.4,14.6,1.6
		c2.5,0.1,4.1,2.8,4.3,5.1c0,0.2,0.1,0.7,0.3,1.4c0.1,0.7,0.3,1.1,0.4,1.2c-1-0.4-1.5,0.4-1.5,2.4c-0.1,0.4,0,1.1,0,2.2
		c0.1,1.1,0.1,1.9,0,2.7c-0.1,0.7-0.3,1.4-0.7,1.9c0.4,1.2,0.4,2.7,0.2,4.7c-0.2,1.9-0.3,3.3-0.2,4.2c0.1,0.8,0.2,1.8,0.2,2.8
		c0,1,0,2,0,3c0,1,0,2,0.1,2.9c0.2,2.1-0.1,3.6-0.9,4.4c-0.8,0.8-1.4,1.3-2.1,1.4c-2.7,0.4-4.6,0.6-5.9,0.6c-2.4-0.3-5-0.6-7.8-1
		c-22.5-3.1-45.4-2.2-68-1.9c-2.8,0-5.6,0.1-8.3,0.1c-13.2,0.3-23.5-1-30.7-1c-0.5,0-4.9-2.5-13.4-3.5c0.1-0.4,0.1-1.1,0.2-2.2
		c0.1-1.1,0.1-1.8,0.2-2.2l0.2,0.2L1.7,34.7z M7.3,34.5l-0.1-0.4l-0.1,0.6L7.3,34.5z"/>
</g>
</svg>
